<?xml version="1.0" encoding="utf-8"?>
<!-- Generator: Adobe Illustrator 19.2.1, SVG Export Plug-In . SVG Version: 6.00 Build 0)  -->
<svg version="1.1" id="Layer_2" xmlns="http://www.w3.org/2000/svg" xmlns:xlink="http://www.w3.org/1999/xlink" x="0px" y="0px"
	 viewBox="0 0 1280 720" style="enable-background:new 0 0 1280 720;" xml:space="preserve">
<style type="text/css">
	.st0{fill:#AAD2E1;}
	.st1{fill:#67C18B;}
	.st2{fill:#97D1AE;}
</style>
<rect class="st0" width="1280" height="720"/>
<path class="st1" d="M1280,503.3V720H0V503.3c22.8-6.1,44.9-15.9,65.3-29.5l70.8-47.2l62.2-41.5c36.9-24.6,79.3-36.9,121.8-36.9
	s84.9,12.3,121.8,36.9l123.9,82.6l9,6c37,24.6,79.4,36.9,121.8,36.9c25.1,0,50.1-4.3,74-12.8c20.4-7.3,39.8-17.7,57.8-31.1
	c39-29.3,85.4-43.9,131.7-43.9c44.9,0,89.7,13.7,127.9,41.1c1.3,0.9,2.5,1.8,3.8,2.8C1146.6,508,1216.2,520.3,1280,503.3z"/>
<path class="st2" d="M1280,380.3V720H0V380.3c42.5,0,84.9,12.3,121.8,36.9l14.2,9.5l118.8,79.2c37,24.6,79.4,36.9,121.8,36.9
	c46.4,0,92.8-14.7,131.8-43.9c17.8-13.4,37.2-23.7,57.4-31c24-8.6,49.1-12.9,74.3-12.9c45.9,0,91.7,14.3,130.5,43
	c0.4,0.3,0.8,0.6,1.2,0.9c74.5,55.9,176.1,58.7,253.5,7l62.7-41.8l70.3-46.8C1195.1,392.6,1237.5,380.3,1280,380.3z"/>
</svg>
