<?xml version="1.0" encoding="utf-8"?>
<!-- Generator: Adobe Illustrator 19.2.1, SVG Export Plug-In . SVG Version: 6.00 Build 0)  -->
<svg version="1.1" id="Layer_1" xmlns="http://www.w3.org/2000/svg" xmlns:xlink="http://www.w3.org/1999/xlink" x="0px" y="0px"
	 viewBox="0 0 1752 1856" style="enable-background:new 0 0 1752 1856;" xml:space="preserve">
<style type="text/css">
	.st0{fill:#C7AE8D;}
	.st1{fill:#1B7E40;}
	.st2{fill:#059347;}
	.st3{fill:#FFFFFF;}
	.st4{opacity:0.4;fill:#FFFFFF;enable-background:new    ;}
	.st5{fill:#1B7F40;}
	.st6{fill:#E69924;}
	.st7{fill:#626C6B;}
	.st8{fill:#86503A;}
	.st9{fill:#714433;}
	.st10{fill:#03A550;}
	.st11{fill:#058041;}
	.st12{fill:#593B2F;}
	.st13{fill:#5C3828;}
	.st14{fill:#5C3829;}
	.st15{fill:#714434;}
	.st16{fill:#714435;}
	.st17{fill:#6F5038;}
	.st18{opacity:0.16;enable-background:new    ;}
	.st19{fill:#BC2626;}
	.st20{fill:#DBD4BB;}
	.st21{fill:#838E8D;}
	.st22{fill:#ADB7B8;}
	.st23{fill:#60442F;}
	.st24{fill:#8E6640;}
	.st25{fill:#B2875D;}
	.st26{fill:#FDB618;}
	.st27{fill:#324A78;}
	.st28{fill:#A52B7F;}
	.st29{fill:#C74C9C;}
	.st30{fill:#72B9D6;}
	.st31{fill:#8ACFF1;}
	.st32{font-family:'NexaLight';}
	.st33{font-size:79px;}
	.st34{font-family:'Aquino-Demo';}
	.st35{font-size:48px;}
	.st36{fill:none;}
</style>
<g id="bg">
	<rect class="st0" width="1752" height="1856"/>
</g>
<g id="objects">
	<g>
		<path class="st1" d="M544,1392v16h-24v-16c0-2.3,0.6-4.4,1.8-6.3c2.1-3.4,5.9-5.8,10.3-5.8c1.1,0,2.1,0.1,3.1,0.4
			c1.8,0.5,3.5,1.4,4.9,2.6c1.5,1.3,2.7,3,3.3,5c0.1,0.2,0.1,0.3,0.2,0.5c0.3,0.9,0.5,1.9,0.5,2.9C544,1391.6,544,1391.8,544,1392z"
			/>
		<path class="st1" d="M556,1400v8h-24v-8c0-2.3,0.6-4.4,1.8-6.3c0.6-1,1.4-1.9,2.3-2.7c1.1-1,2.4-1.8,3.9-2.3h0.1
			c1-0.4,2.2-0.6,3.3-0.7c0.2,0,0.5,0,0.7,0c1.2,0,2.4,0.2,3.5,0.5c1.7,0.5,3.2,1.4,4.5,2.5C554.5,1393.3,556,1396.4,556,1400z"/>
		<path class="st1" d="M504,1392v16h-24v-16c0-2.3,0.6-4.4,1.8-6.3c0.3-0.5,0.7-1,1-1.4c0.1-0.1,0.1-0.2,0.2-0.3
			c1.5-1.7,3.6-3,5.9-3.6c0.8-0.2,1.7-0.4,2.6-0.4c0.2,0,0.4,0,0.5,0c1.4,0,2.8,0.2,4,0.7c1.5,0.5,2.8,1.3,4,2.4
			C502.5,1385.3,504,1388.4,504,1392z"/>
		<path class="st1" d="M492,1396v12h-24v-12c0-2.3,0.6-4.4,1.8-6.3c2-3.2,5.3-5.4,9.3-5.7c0.3,0,0.7-0.1,1-0.1c1,0,1.9,0.1,2.8,0.3
			c0.4,0.1,0.8,0.2,1.2,0.4c1.5,0.5,2.8,1.3,4,2.4c0.1,0,0.1,0.1,0.2,0.2c2.2,2.1,3.7,5,3.8,8.2C492,1395.6,492,1395.8,492,1396z"/>
		<path class="st2" d="M512,1389.5v18.5h-24v-18.5c0-0.3,0-0.5,0-0.8c0-0.5,0.1-1,0.2-1.5c0.1-0.8,0.3-1.7,0.6-2.5
			c0-0.1,0.1-0.2,0.1-0.3c0.6-1.6,1.5-3.1,2.6-4.4c1.3-1.4,2.8-2.6,4.6-3.3c1.2-0.5,2.6-0.8,4-0.8c3.7,0,7,1.9,9.2,4.9
			c1.6,2.1,2.5,4.7,2.7,7.6C512,1388.8,512,1389.1,512,1389.5z"/>
		<path class="st2" d="M520,1373.5v22.5h-24v-22.5c0-1.7,0.3-3.3,0.8-4.7c1.7-5.1,6.1-8.8,11.2-8.8c3.7,0,7,1.9,9.2,4.9
			c1.6,2.1,2.5,4.7,2.7,7.6C520,1372.8,520,1373.2,520,1373.5z"/>
		<path class="st2" d="M536,1385.5v22.5h-24v-22.5c0-1.7,0.3-3.3,0.8-4.7c1.2-3.7,3.9-6.7,7.2-8c1.3-0.5,2.6-0.8,4-0.8
			c3.7,0,7,1.9,9.2,4.9c0.8,1.1,1.4,2.3,1.9,3.5c0.5,1.3,0.8,2.6,0.9,4.1C536,1384.8,536,1385.1,536,1385.5z"/>
		<path class="st2" d="M496,1405.5v2.5h-24v-2.5c0-0.3,0-0.5,0-0.8c0.1-1.4,0.3-2.7,0.7-3.9c0-0.1,0.1-0.2,0.1-0.3
			c1.3-3.6,3.9-6.4,7.1-7.6l0,0c1.2-0.5,2.6-0.8,4-0.8s2.8,0.3,4,0.8c1.5,0.6,2.8,1.5,4,2.6c0.5,0.4,0.9,0.9,1.3,1.4
			c1.6,2.1,2.5,4.7,2.7,7.6C496,1404.8,496,1405.1,496,1405.5z"/>
		<path class="st2" d="M548,1401.5v6.5h-24v-6.5c0-0.3,0-0.5,0-0.8c0.1-1.4,0.3-2.7,0.7-3.9c0-0.1,0.1-0.2,0.1-0.3
			c1.3-3.6,3.9-6.4,7.1-7.6c1.2-0.5,2.6-0.8,4-0.8s2.7,0.3,3.9,0.7c1.5,0.6,2.9,1.5,4.1,2.7c0.5,0.5,0.9,0.9,1.3,1.5
			c1.6,2.1,2.5,4.7,2.7,7.6C548,1400.8,548,1401.1,548,1401.5z"/>
	</g>
	<g>
		<path class="st1" d="M636,1364v12h-24v-12c0-2.3,0.6-4.4,1.8-6.3c2-3.2,5.3-5.4,9.3-5.7c0.3,0,0.7-0.1,1-0.1c1.4,0,2.8,0.2,4,0.7
			c1.5,0.5,2.8,1.3,4,2.4C634.5,1357.3,636,1360.4,636,1364z"/>
		<path class="st1" d="M608,1396v12h-24v-12c0-2.3,0.6-4.4,1.8-6.3c2-3.2,5.3-5.4,9.3-5.7c0.3,0,0.7-0.1,1-0.1c1.4,0,2.8,0.2,4,0.7
			c1.5,0.5,2.8,1.3,4,2.4C606.5,1389.3,608,1392.4,608,1396z"/>
		<path class="st1" d="M668,1372v12h-24v-12c0-2.3,0.6-4.4,1.8-6.3c2-3.2,5.3-5.4,9.3-5.7c0.3,0,0.7-0.1,1-0.1c1.4,0,2.8,0.2,4,0.7
			c1.5,0.5,2.8,1.3,4,2.4C666.5,1365.3,668,1368.4,668,1372z"/>
		<path class="st1" d="M684,1380v12h-24v-12c0-2.3,0.6-4.4,1.8-6.3c2-3.2,5.3-5.4,9.3-5.7c0.3,0,0.7-0.1,1-0.1c1.4,0,2.8,0.2,4,0.7
			c1.5,0.5,2.8,1.3,4,2.4C682.5,1373.3,684,1376.4,684,1380z"/>
		<path class="st1" d="M696,1396v12h-24v-12c0-2.3,0.6-4.4,1.8-6.3c1.9-3.2,5.3-5.4,9.2-5.7l0,0c0.3,0,0.7-0.1,1-0.1
			c1.4,0,2.8,0.2,4,0.7c1.5,0.5,2.8,1.3,4,2.4C694.5,1389.3,696,1392.4,696,1396z"/>
		<path class="st2" d="M624,1381.5v22.5h-24v-22.5c0-0.3,0-0.5,0-0.8c0.1-1.4,0.3-2.7,0.7-3.9c0-0.1,0.1-0.2,0.1-0.3
			c1.3-3.6,3.9-6.4,7.1-7.6c1.2-0.5,2.6-0.8,4-0.8c3.7,0,7,1.9,9.2,4.9c1.6,2.1,2.5,4.7,2.7,7.6C624,1380.8,624,1381.1,624,1381.5z"
			/>
		<path class="st2" d="M616,1397.5v10.5h-24v-10.5c0-1.7,0.3-3.3,0.8-4.7c1.7-5.1,6.1-8.8,11.2-8.8c3.7,0,7,1.9,9.2,4.9
			c0.7,0.9,1.3,2,1.7,3.1c0.6,1.4,0.9,2.9,1,4.5C616,1396.8,616,1397.1,616,1397.5z"/>
		<path class="st2" d="M644,1369.5v22.5h-24v-22.5c0-1.7,0.3-3.3,0.8-4.7c1.2-3.7,3.9-6.7,7.2-8c1.3-0.5,2.6-0.8,4-0.8
			c3.7,0,7,1.9,9.2,4.9c0.8,1.1,1.4,2.3,1.9,3.5c0.5,1.3,0.8,2.6,0.9,4.1C644,1368.8,644,1369.1,644,1369.5z"/>
		<path class="st2" d="M660,1381.5v22.5h-24v-22.5c0-1.7,0.3-3.3,0.8-4.7c1.2-3.7,3.9-6.7,7.2-8c1.3-0.5,2.6-0.8,4-0.8
			c3.7,0,7,1.9,9.2,4.9c0.8,1.1,1.4,2.3,1.9,3.5c0.5,1.3,0.8,2.6,0.9,4.1C660,1380.8,660,1381.1,660,1381.5z"/>
		<path class="st2" d="M680,1389.5v18.5h-24v-18.5c0-1.7,0.3-3.3,0.8-4.7c0.7-2,1.7-3.8,3.1-5.2c1.2-1.2,2.6-2.2,4.1-2.8
			c1.3-0.5,2.6-0.8,4-0.8c3.7,0,7,1.9,9.2,4.9c0.7,1,1.3,2,1.7,3.2c0.1,0.1,0.1,0.2,0.1,0.4c0.5,1.3,0.8,2.6,0.9,4.1
			C680,1388.8,680,1389.1,680,1389.5z"/>
		<rect x="600" y="1392" class="st2" width="68" height="16"/>
		<path class="st2" d="M692,1405.5v2.5h-24v-2.5c0-1.7,0.3-3.3,0.8-4.7c1.7-5.1,6.1-8.8,11.2-8.8c3.7,0,7,1.9,9.2,4.9
			c1.6,2.1,2.5,4.7,2.7,7.6C692,1404.8,692,1405.1,692,1405.5z"/>
	</g>
	<path class="st3" d="M608,744L608,744c8.8,8.8,23.2,8.8,32,0l0,0l0,0c8.8,8.8,23.2,8.8,32,0l0,0l0,0c8.8,8.8,23.2,8.8,32,0l0,0l0,0
		c8.8,8.8,23.2,8.8,32,0l0,0v112H608V744z"/>
	<path class="st3" d="M472,744L472,744c8.8,8.8,23.2,8.8,32,0l0,0l0,0c8.8,8.8,23.2,8.8,32,0l0,0l0,0c8.8,8.8,23.2,8.8,32,0l0,0l0,0
		c8.8,8.8,23.2,8.8,32,0l0,0v112H472V744z"/>
	<path class="st4" d="M140,1752h-32c-4.4,0-8,3.6-8,8l0,0c0,4.4,3.6,8,8,8h32c4.4,0,8-3.6,8-8l0,0C148,1755.6,144.4,1752,140,1752z"
		/>
	<rect x="510" y="1493.6" class="st5" width="4" height="106.4"/>
	<path class="st6" d="M514.3,1484.3l7.4-1.6c3.4-0.7,5.1,4,2,5.6l-6.7,3.5L514.3,1484.3z"/>
	<path class="st6" d="M517.1,1491.8l1.6,7.4c0.7,3.4-4,5.1-5.6,2l-3.5-6.7L517.1,1491.8z"/>
	<path class="st6" d="M506.8,1487l-1.6-7.4c-0.7-3.4,4-5.1,5.6-2l3.5,6.7L506.8,1487z"/>
	<path class="st6" d="M509.6,1494.5l-7.4,1.6c-3.4,0.7-5.1-4-2-5.6l6.7-3.5L509.6,1494.5z"/>
	<path class="st7" d="M1131.7,1360L1131.7,1360c-10.9,0-19.7,8.8-19.7,19.7v28.3h31.7v-36C1143.7,1365.4,1138.3,1360,1131.7,1360z"
		/>
	<path class="st1" d="M152,1388v16h-24v-16c0-5.7,3.9-10.4,9.2-11.7c0.9-0.2,1.8-0.3,2.8-0.3c3.6,0,6.8,1.6,9,4
		c0.4,0.4,0.7,0.9,1,1.3C151.3,1383.3,152,1385.5,152,1388z"/>
	<path class="st1" d="M172,1388v16h-24v-16c0-2.5,0.7-4.7,2-6.6c0.2-0.4,0.5-0.7,0.8-1c2.2-2.6,5.5-4.3,9.2-4.3c1.4,0,2.8,0.2,4,0.7
		C168.7,1378.3,172,1382.8,172,1388z"/>
	<path class="st1" d="M104,1388v16H80v-16c0-2.3,0.6-4.4,1.8-6.3c2.1-3.4,5.9-5.8,10.3-5.8c3.1,0,5.9,1.1,8,3.1
		C102.5,1381.3,104,1384.4,104,1388z"/>
	<path class="st2" d="M551.6,1076.7c0,24.6-4.8,49.4-14.6,72.8c-0.6,1.5-2.1,2.5-3.7,2.5h-42.7c-0.8,0-1.6-0.2-2.2-0.7
		c-0.7-0.4-1.2-1-1.5-1.8c-24.3-58.4-17.9-125.2,17.2-177.9L512,960l7.8,11.7C540.8,1003.3,551.6,1039.9,551.6,1076.7z"/>
	<path class="st2" d="M432,1008v96c0,13.3-5.4,25.3-14.1,33.9c-6.3,6.3-14.3,10.9-23.4,12.9c-3.4,0.8-6.9,1.2-10.6,1.2
		s-7.2-0.4-10.6-1.2C352,1146,336,1126.9,336,1104v-96c0-26.5,21.5-48,48-48S432,981.5,432,1008z"/>
	<path class="st2" d="M306.7,1152H205.3c-2.7,0-4.6-2.7-3.8-5.4L252.2,963c0.6-2,2.2-3,3.8-3s3.3,1,3.8,3l50.7,183.5
		C311.3,1149.3,309.3,1152,306.7,1152z"/>
	<path class="st8" d="M200,872V744h108v120c0,4.4-3.6,8-8,8H200z"/>
	<path class="st8" d="M192,872V744H84v120c0,4.4,3.6,8,8,8H192z"/>
	<path class="st9" d="M116,744v32v56c0,4.4,3.6,8,8,8h68v-64v-32H116z"/>
	<path class="st9" d="M200,744v32v64h68c4.4,0,8-3.6,8-8v-56v-32H200z"/>
	<g>
		<rect x="200" y="64" class="st8" width="128" height="128"/>
		<rect x="200" y="64" class="st10" width="128" height="20"/>
		<rect x="200" y="84" class="st11" width="128" height="8"/>
		<rect x="200" y="92" class="st12" width="128" height="4"/>
		<rect x="200" y="128" class="st9" width="128" height="64"/>
		<rect x="200" y="160" class="st13" width="128" height="32"/>
	</g>
	<g>
		<path class="st8" d="M462.9,68c-1.4-2.4-4-4-6.9-4h-12h-44h-64v128h64h44h20V72C464,70.5,463.6,69.2,462.9,68z"/>
		<path class="st12" d="M462.9,68H444h-8v24h-36h-64v4h64h36c0,2.2,0.9,4.2,2.3,5.7c1.4,1.4,3.4,2.3,5.7,2.3h1.1c1.4,2.4,4,4,6.9,4
			h12V96v-4V72C464,70.5,463.6,69.2,462.9,68z"/>
		<path class="st11" d="M456,84h-12V64h-8v20h-36h-64v8h64h36c0,2.2,0.9,4.2,2.3,5.7c1.4,1.4,3.4,2.3,5.7,2.3h4v-4h-4v-4h4h16v-8
			H456z"/>
		<path class="st10" d="M462.9,68c-1.4-2.4-4-4-6.9-4h-12h-44h-64v20h64h36c4.4,0,8,3.6,8,8v4c0,4.4,3.6,8,8,8h12V84v-8v-4
			C464,70.5,463.6,69.2,462.9,68z"/>
		<path class="st9" d="M424,128h-88v64h96v-56C432,131.6,428.4,128,424,128z"/>
		<path class="st13" d="M392,160h-56v32h64v-24C400,163.6,396.4,160,392,160z"/>
	</g>
	<g>
		<path class="st8" d="M65.1,68c1.4-2.4,4-4,6.9-4h12h44h64v128h-64H84H64V72C64,70.5,64.4,69.2,65.1,68z"/>
		<path class="st12" d="M65.1,68H84h8v24h36h64v4h-64H92c0,2.2-0.9,4.2-2.3,5.7c-1.4,1.4-3.4,2.3-5.7,2.3h-1.1c-1.4,2.4-4,4-6.9,4
			H64V96v-4V72C64,70.5,64.4,69.2,65.1,68z"/>
		<path class="st11" d="M72,84h12V64h8v20h36h64v8h-64H92c0,2.2-0.9,4.2-2.3,5.7c-1.4,1.4-3.4,2.3-5.7,2.3h-4v-4h4v-4h-4H64v-8H72z"
			/>
		<path class="st10" d="M65.1,68c1.4-2.4,4-4,6.9-4h12h44h64v20h-64H92c-4.4,0-8,3.6-8,8v4c0,4.4-3.6,8-8,8H64V84v-8v-4
			C64,70.5,64.4,69.2,65.1,68z"/>
		<path class="st9" d="M104,128h88v64H96v-56C96,131.6,99.6,128,104,128z"/>
		<path class="st13" d="M136,160h56v32h-64v-24C128,163.6,131.6,160,136,160z"/>
	</g>
	<g>
		<path class="st8" d="M600,72v120H472V72c0-1.5,0.4-2.8,1.1-4c0.3-0.6,0.8-1.2,1.3-1.7c1.4-1.4,3.4-2.3,5.7-2.3h112
			c3,0,5.5,1.6,6.9,4C599.6,69.2,600,70.5,600,72z"/>
		<path class="st12" d="M600,72v36h-12c-3,0-5.5-1.6-6.9-4H580c-2.2,0-4.2-0.9-5.7-2.3c-1.4-1.5-2.3-3.5-2.3-5.7h-72
			c0,2.2-0.9,4.2-2.3,5.7c-1.4,1.4-3.4,2.3-5.7,2.3h-1.1c-1.4,2.4-4,4-6.9,4h-12V72c0-1.5,0.4-2.8,1.1-4H500v24h72V68h26.9
			C599.6,69.2,600,70.5,600,72z"/>
		<path class="st11" d="M600,92v-8h-20V64h-8v20h-36h-36V64h-8v20h-20v8h20v4h-4v4h4c2.2,0,4.2-0.9,5.7-2.3c1.4-1.5,2.3-3.5,2.3-5.7
			h36h36c0,2.2,0.9,4.2,2.3,5.7c1.4,1.4,3.4,2.3,5.7,2.3h4v-4h-4v-4H600z"/>
		<path class="st10" d="M600,72v32h-12c-3,0-5.5-1.6-6.9-4c-0.7-1.2-1.1-2.5-1.1-4v-4c0-4.4-3.6-8-8-8h-72c-4.4,0-8,3.6-8,8v4
			c0,1.5-0.4,2.8-1.1,4c-1.4,2.4-4,4-6.9,4h-12V72c0-1.5,0.4-2.8,1.1-4c0.3-0.6,0.8-1.2,1.3-1.7c1.4-1.4,3.4-2.3,5.7-2.3h112
			c3,0,5.5,1.6,6.9,4C599.6,69.2,600,70.5,600,72z"/>
		<path class="st9" d="M560,128h-48c-4.4,0-8,3.6-8,8v56h64v-56C568,131.6,564.4,128,560,128z"/>
	</g>
	<g>
		<rect x="84" y="472" class="st8" width="108" height="128"/>
		<path class="st10" d="M192,472v20H72c-4.4,0-8-3.6-8-8v-4c0-4.4,3.6-8,8-8H192z"/>
		<path class="st11" d="M192,492v8H80c-2.2,0-4.2-0.9-5.7-2.3c-1.4-1.5-2.3-3.5-2.3-5.7H192z"/>
		<path class="st12" d="M192,500v4H84c-1.1,0-2.1-0.5-2.8-1.2c-0.7-0.7-1.2-1.7-1.2-2.8H192z"/>
		<path class="st9" d="M124,536h68v64h-76v-56C116,539.6,119.6,536,124,536z"/>
		<path class="st13" d="M156,568h36v32h-44v-24C148,571.6,151.6,568,156,568z"/>
	</g>
	<g>
		<rect x="200" y="472" class="st8" width="108" height="128"/>
		<path class="st10" d="M200,472v20h120c4.4,0,8-3.6,8-8v-4c0-4.4-3.6-8-8-8H200z"/>
		<path class="st11" d="M200,492v8h112c2.2,0,4.2-0.9,5.7-2.3c1.4-1.5,2.3-3.5,2.3-5.7H200z"/>
		<path class="st12" d="M200,500v4h108c1.1,0,2.1-0.5,2.8-1.2c0.7-0.7,1.2-1.7,1.2-2.8H200z"/>
		<path class="st9" d="M268,536h-68v64h76v-56C276,539.6,272.4,536,268,536z"/>
		<path class="st13" d="M236,568h-36v32h44v-24C244,571.6,240.4,568,236,568z"/>
	</g>
	<g>
		<rect x="356" y="472" class="st8" width="88" height="128"/>
		<path class="st10" d="M336,480v4c0,4.4,3.6,8,8,8h112c4.4,0,8-3.6,8-8v-4c0-4.4-3.6-8-8-8H344C339.6,472,336,475.6,336,480z"/>
		<path class="st11" d="M456,492c0,2.2-0.9,4.2-2.3,5.7c-1.4,1.4-3.4,2.3-5.7,2.3h-96c-4.4,0-8-3.6-8-8l0,0H456z"/>
		<path class="st12" d="M448,500c0,1.1-0.5,2.1-1.2,2.8c-0.7,0.7-1.7,1.2-2.8,1.2h-88c-2.2,0-4-1.8-4-4l0,0H448z"/>
		<path class="st9" d="M404,536h-8c-4.4,0-8,3.6-8,8v56h24v-56C412,539.6,408.4,536,404,536z"/>
	</g>
	<rect x="200" y="200" class="st14" width="128" height="128"/>
	<g>
		<rect x="64" y="200" class="st8" width="128" height="128"/>
		<rect x="96" y="200" class="st9" width="96" height="128"/>
		<rect x="128" y="200" class="st13" width="64" height="128"/>
	</g>
	<g>
		<rect x="336" y="200" class="st8" width="128" height="128"/>
		<rect x="336" y="200" class="st9" width="96" height="128"/>
		<rect x="336" y="200" class="st13" width="64" height="128"/>
	</g>
	<g>
		<rect x="472" y="200" class="st8" width="128" height="128"/>
		<rect x="504" y="200" class="st9" width="64" height="128"/>
	</g>
	<g>
		<rect x="356" y="608" class="st8" width="88" height="128"/>
		<rect x="388" y="608" class="st9" width="24" height="128"/>
	</g>
	<g>
		<rect x="84" y="608" class="st8" width="108" height="128"/>
		<rect x="116" y="608" class="st9" width="76" height="128"/>
		<rect x="148" y="608" class="st13" width="44" height="128"/>
	</g>
	<g>
		<rect x="200" y="608" class="st8" width="108" height="128"/>
		<rect x="200" y="608" class="st9" width="76" height="128"/>
		<rect x="200" y="608" class="st13" width="44" height="128"/>
	</g>
	<g>
		<polygon class="st14" points="1144,200 1144,328 1016,328 1016,296 1112,200 		"/>
		<polygon class="st8" points="1112,200 1016,296 1016,200 		"/>
		<polygon class="st10" points="1036,200 1016,220 1016,200 		"/>
		<polygon class="st11" points="1044,200 1016,228 1016,220 1036,200 		"/>
		<polygon class="st12" points="1048,200 1016,232 1016,228 1044,200 		"/>
		<polygon class="st9" points="1112,200 1016,296 1016,264 1080,200 		"/>
		<polygon class="st13" points="1112,200 1144,200 1016,328 1016,296 		"/>
	</g>
	<g>
		<g>
			<polygon class="st8" points="1008,220 1008,328 900,328 			"/>
			<polygon class="st10" points="1008,200 1008,220 900,328 880,328 			"/>
			<polygon class="st11" points="1008,220 1008,228 908,328 900,328 			"/>
			<polygon class="st12" points="1008,228 1008,232 912,328 908,328 			"/>
		</g>
		<polygon class="st9" points="944,328 1008,264 1008,296 976,328 		"/>
		<polygon class="st13" points="976,328 1008,296 1008,328 		"/>
	</g>
	<g>
		<polygon class="st14" points="1280,296 1280,328 1152,328 1152,200 1184,200 		"/>
		<polygon class="st8" points="1280,200 1280,296 1184,200 		"/>
		<polygon class="st10" points="1260,200 1280,220 1280,200 		"/>
		<polygon class="st11" points="1252,200 1280,228 1280,220 1260,200 		"/>
		<polygon class="st12" points="1248,200 1280,232 1280,228 1252,200 		"/>
		<polygon class="st9" points="1280,264 1280,296 1184,200 1216,200 		"/>
		<polygon class="st13" points="1184,200 1152,200 1280,328 1280,296 		"/>
	</g>
	<g>
		<g>
			<polygon class="st8" points="1288,220 1288,328 1396,328 			"/>
			<polygon class="st10" points="1288,200 1288,220 1396,328 1416,328 			"/>
			<polygon class="st11" points="1288,220 1288,228 1388,328 1396,328 			"/>
			<polygon class="st12" points="1288,228 1288,232 1384,328 1388,328 			"/>
		</g>
		<polygon class="st9" points="1352,328 1288,264 1288,296 1320,328 		"/>
		<polygon class="st13" points="1320,328 1288,296 1288,328 		"/>
	</g>
	<polygon class="st8" points="1668,336 1668,368 1632,400 1616,414.2 1596,432 1588,439.1 1584,442.7 1578.7,447.4 1560,464 
		1560,336 	"/>
	<path class="st10" d="M1560,336v20h120c4.4,0,8-3.6,8-8v-4c0-4.4-3.6-8-8-8H1560z"/>
	<path class="st11" d="M1560,356v8h112c2.2,0,4.2-0.9,5.7-2.3c1.4-1.5,2.3-3.5,2.3-5.7H1560z"/>
	<path class="st12" d="M1560,364v4h108c1.1,0,2.1-0.5,2.8-1.2c0.7-0.7,1.2-1.7,1.2-2.8H1560z"/>
	<polygon class="st8" points="1552,336 1552,464 1533.3,447.4 1528,442.7 1524,439.1 1516,432 1496,414.2 1480,400 1444,368 
		1444,336 	"/>
	<path class="st10" d="M1552,336v20h-120c-4.4,0-8-3.6-8-8v-4c0-4.4,3.6-8,8-8H1552z"/>
	<path class="st11" d="M1552,356v8h-112c-2.2,0-4.2-0.9-5.7-2.3c-1.4-1.5-2.3-3.5-2.3-5.7H1552z"/>
	<path class="st12" d="M1552,364v4h-108c-1.1,0-2.1-0.5-2.8-1.2c-0.7-0.7-1.2-1.7-1.2-2.8H1552z"/>
	<path class="st8" d="M1668,472v20c0,2.7-0.1,5.4-0.3,8c-0.1,1.3-0.2,2.7-0.4,4c-1.2,11.3-4.2,22-8.7,32
		c-4.7,10.5-11,20.1-18.7,28.6c-1.1,1.2-2.2,2.3-3.3,3.4c-0.1,0.1-0.2,0.3-0.4,0.4c-8.3,8.2-17.8,15.2-28.4,20.4
		c-14.5,7.2-30.8,11.2-48,11.2V472H1668z"/>
	<path class="st10" d="M1560,472v20h120c4.4,0,8-3.6,8-8v-4c0-4.4-3.6-8-8-8H1560z"/>
	<path class="st11" d="M1560,492v8h112c2.2,0,4.2-0.9,5.7-2.3c1.4-1.5,2.3-3.5,2.3-5.7H1560z"/>
	<path class="st12" d="M1560,500v4h108c1.1,0,2.1-0.5,2.8-1.2c0.7-0.7,1.2-1.7,1.2-2.8H1560z"/>
	<path class="st8" d="M1552,472v128c-17.2,0-33.5-4-48-11.2c-10.5-5.2-20.1-12.2-28.4-20.4c-0.1-0.1-0.2-0.2-0.4-0.4
		c-1.1-1.1-2.2-2.3-3.3-3.4c-7.6-8.4-14-18-18.7-28.6c-4.5-10-7.4-20.7-8.7-32c-0.2-1.3-0.3-2.7-0.4-4c-0.2-2.6-0.3-5.3-0.3-8v-20
		L1552,472L1552,472z"/>
	<path class="st10" d="M1552,472v20h-120c-4.4,0-8-3.6-8-8v-4c0-4.4,3.6-8,8-8H1552z"/>
	<path class="st11" d="M1552,492v8h-112c-2.2,0-4.2-0.9-5.7-2.3c-1.4-1.5-2.3-3.5-2.3-5.7H1552z"/>
	<path class="st12" d="M1552,500v4h-108c-1.1,0-2.1-0.5-2.8-1.2c-0.7-0.7-1.2-1.7-1.2-2.8H1552z"/>
	<path class="st8" d="M1668,640v8c0,4.4-3.6,8-8,8h-4c-17.1,0-32.9,6-45.3,16c-7.7,6.3-14.2,14.1-18.8,23c-1.5,2.9-2.8,5.9-3.9,9
		c-2.7,7.5-4.1,15.6-4.1,24c0,2.2-0.9,4.2-2.3,5.7c-1.4,1.4-3.4,2.3-5.7,2.3h-16v-96H1668z"/>
	<path class="st10" d="M1560,608v20h120c4.4,0,8-3.6,8-8v-4c0-4.4-3.6-8-8-8H1560z"/>
	<path class="st11" d="M1560,628v8h112c2.2,0,4.2-0.9,5.7-2.3c1.4-1.5,2.3-3.5,2.3-5.7H1560z"/>
	<path class="st12" d="M1560,636v4h108c1.1,0,2.1-0.5,2.8-1.2c0.7-0.7,1.2-1.7,1.2-2.8H1560z"/>
	<path class="st8" d="M1552,640v96h-16c-2.2,0-4.2-0.9-5.7-2.3c-1.4-1.5-2.3-3.5-2.3-5.7c0-8.4-1.4-16.5-4.1-24
		c-1.1-3.1-2.4-6.1-3.9-9c-4.6-8.9-11-16.7-18.8-23c-12.4-10-28.1-16-45.3-16h-4c-4.4,0-8-3.6-8-8v-8H1552z"/>
	<path class="st10" d="M1552,608v20h-120c-4.4,0-8-3.6-8-8v-4c0-4.4,3.6-8,8-8H1552z"/>
	<path class="st11" d="M1552,628v8h-112c-2.2,0-4.2-0.9-5.7-2.3c-1.4-1.5-2.3-3.5-2.3-5.7H1552z"/>
	<path class="st12" d="M1552,636v4h-108c-1.1,0-2.1-0.5-2.8-1.2c-0.7-0.7-1.2-1.7-1.2-2.8H1552z"/>
	<g>
		<rect x="472" y="608" class="st8" width="128" height="128"/>
		<rect x="472" y="608" class="st10" width="128" height="20"/>
		<rect x="472" y="628" class="st11" width="128" height="8"/>
		<rect x="472" y="636" class="st12" width="128" height="4"/>
		<rect x="472" y="672" class="st9" width="128" height="32"/>
	</g>
	<g>
		<rect x="200" y="336" class="st8" width="128" height="128"/>
		<rect x="200" y="368" class="st9" width="128" height="64"/>
		<rect x="200" y="336" class="st13" width="128" height="64"/>
	</g>
	<g>
		<path class="st8" d="M65.1,460c1.4,2.4,4,4,6.9,4h12h44h64V336h-64H84H64v120C64,457.5,64.4,458.8,65.1,460z"/>
		<path class="st9" d="M104,432h88v-96H96v88C96,428.4,99.6,432,104,432z"/>
		<path class="st13" d="M136,400h56v-64h-64v56C128,396.4,131.6,400,136,400z"/>
	</g>
	<g>
		<path class="st8" d="M462.9,460c-1.4,2.4-4,4-6.9,4h-12h-44h-64V336h64h44h20v120C464,457.5,463.6,458.8,462.9,460z"/>
		<path class="st9" d="M424,432h-88v-96h96v88C432,428.4,428.4,432,424,432z"/>
		<path class="st13" d="M392,400h-56v-64h64v56C400,396.4,396.4,400,392,400z"/>
	</g>
	<path class="st8" d="M472,456V336h128v120c0,1.5-0.4,2.8-1.1,4c-0.3,0.6-0.8,1.2-1.3,1.7c-1.4,1.4-3.4,2.3-5.7,2.3H480
		c-3,0-5.5-1.6-6.9-4C472.4,458.8,472,457.5,472,456z"/>
	<path class="st9" d="M512,432h48c4.4,0,8-3.6,8-8v-88h-64v88C504,428.4,507.6,432,512,432z"/>
	<path class="st8" d="M356,864V744h88v120c0,4.4-3.6,8-8,8h-72C359.6,872,356,868.4,356,864z"/>
	<path class="st9" d="M396,840h8c4.4,0,8-3.6,8-8v-88h-24v88C388,836.4,391.6,840,396,840z"/>
	<polygon class="st8" points="1124,336 1124,368 1072,414.2 1044,439.1 1040,442.7 1034.7,447.4 1016,464 1016,336 	"/>
	<path class="st10" d="M1016,336v20h120c4.4,0,8-3.6,8-8v-4c0-4.4-3.6-8-8-8H1016z"/>
	<path class="st11" d="M1016,356v8h112c2.2,0,4.2-0.9,5.7-2.3c1.4-1.5,2.3-3.5,2.3-5.7H1016z"/>
	<path class="st12" d="M1016,364v4h108c1.1,0,2.1-0.5,2.8-1.2c0.7-0.7,1.2-1.7,1.2-2.8H1016z"/>
	<polygon class="st8" points="900,336 900,368 952,414.2 980,439.1 984,442.7 989.3,447.4 1008,464 1008,336 	"/>
	<path class="st10" d="M1008,336v20H888c-4.4,0-8-3.6-8-8v-4c0-4.4,3.6-8,8-8H1008z"/>
	<path class="st11" d="M1008,356v8H896c-2.2,0-4.2-0.9-5.7-2.3c-1.4-1.5-2.3-3.5-2.3-5.7H1008z"/>
	<path class="st12" d="M1008,364v4H900c-1.1,0-2.1-0.5-2.8-1.2s-1.2-1.7-1.2-2.8H1008z"/>
	<path class="st8" d="M1124,472v20c0,27.9-10.6,53.4-28,72.6c-1.2,1.3-2.4,2.6-3.6,3.8c-8.3,8.2-17.8,15.2-28.4,20.4
		c-14.5,7.2-30.8,11.2-48,11.2V472H1124z"/>
	<path class="st10" d="M1016,472v20h120c4.4,0,8-3.6,8-8v-4c0-4.4-3.6-8-8-8H1016z"/>
	<path class="st11" d="M1016,492v8h112c2.2,0,4.2-0.9,5.7-2.3c1.4-1.5,2.3-3.5,2.3-5.7H1016z"/>
	<path class="st12" d="M1016,500v4h108c1.1,0,2.1-0.5,2.8-1.2c0.7-0.7,1.2-1.7,1.2-2.8H1016z"/>
	<path class="st8" d="M900,472v20c0,27.9,10.6,53.4,28,72.6c1.2,1.3,2.4,2.6,3.6,3.8c8.3,8.2,17.8,15.2,28.4,20.4
		c14.5,7.2,30.8,11.2,48,11.2V472H900z"/>
	<path class="st10" d="M1008,472v20H888c-4.4,0-8-3.6-8-8v-4c0-4.4,3.6-8,8-8H1008z"/>
	<path class="st11" d="M1008,492v8H896c-2.2,0-4.2-0.9-5.7-2.3c-1.4-1.5-2.3-3.5-2.3-5.7H1008z"/>
	<path class="st12" d="M1008,500v4H900c-1.1,0-2.1-0.5-2.8-1.2s-1.2-1.7-1.2-2.8H1008z"/>
	<path class="st8" d="M1124,640v8c0,4.4-3.6,8-8,8h-4c-27.9,0-52,15.8-64,39c-5.1,9.9-8,21.1-8,33c0,2.2-0.9,4.2-2.3,5.7
		c-1.4,1.4-3.4,2.3-5.7,2.3h-16v-96H1124z"/>
	<path class="st10" d="M1016,608v20h120c4.4,0,8-3.6,8-8v-4c0-4.4-3.6-8-8-8H1016z"/>
	<path class="st11" d="M1016,628v8h112c2.2,0,4.2-0.9,5.7-2.3c1.4-1.5,2.3-3.5,2.3-5.7H1016z"/>
	<path class="st12" d="M1016,636v4h108c1.1,0,2.1-0.5,2.8-1.2c0.7-0.7,1.2-1.7,1.2-2.8H1016z"/>
	<path class="st8" d="M900,640v8c0,4.4,3.6,8,8,8h4c27.9,0,52,15.8,64,39c5.1,9.9,8,21.1,8,33c0,2.2,0.9,4.2,2.3,5.7
		c1.4,1.4,3.4,2.3,5.7,2.3h16v-96H900z"/>
	<path class="st10" d="M1008,608v20H888c-4.4,0-8-3.6-8-8v-4c0-4.4,3.6-8,8-8H1008z"/>
	<path class="st11" d="M1008,628v8H896c-2.2,0-4.2-0.9-5.7-2.3c-1.4-1.5-2.3-3.5-2.3-5.7H1008z"/>
	<path class="st12" d="M1008,636v4H900c-1.1,0-2.1-0.5-2.8-1.2s-1.2-1.7-1.2-2.8H1008z"/>
	<rect x="608" y="64" class="st14" width="128" height="128"/>
	<rect x="608" y="64" class="st8" width="40" height="68"/>
	<path class="st9" d="M672,64v88c0,4.4-3.6,8-8,8h-56v-32h24c4.4,0,8-3.6,8-8V64H672z"/>
	<rect x="744" y="64" class="st14" width="128" height="128"/>
	<rect x="832" y="64" class="st8" width="40" height="68"/>
	<path class="st9" d="M808,64v88c0,4.4,3.6,8,8,8h56v-32h-24c-4.4,0-8-3.6-8-8V64H808z"/>
	<rect x="608" y="200" class="st14" width="128" height="128"/>
	<rect x="608" y="260" class="st8" width="40" height="68"/>
	<path class="st9" d="M672,328v-88c0-4.4-3.6-8-8-8h-56v32h24c4.4,0,8,3.6,8,8v56H672z"/>
	<rect x="744" y="200" class="st14" width="128" height="128"/>
	<rect x="832" y="260" class="st8" width="40" height="68"/>
	<path class="st9" d="M808,328v-88c0-4.4,3.6-8,8-8h56v32h-24c-4.4,0-8,3.6-8,8v56H808z"/>
	<g>
		<path class="st8" d="M609.1,340c1.4-2.4,4-4,6.9-4h12h44h64v128h-64h-44h-20V344C608,342.5,608.4,341.2,609.1,340z"/>
		<path class="st12" d="M609.1,340H628h8v24h36h64v4h-64h-36c0,2.2-0.9,4.2-2.3,5.7c-1.4,1.4-3.4,2.3-5.7,2.3h-1.1
			c-1.4,2.4-4,4-6.9,4h-12v-12v-4v-20C608,342.5,608.4,341.2,609.1,340z"/>
		<path class="st11" d="M616,356h12v-20h8v20h36h64v8h-64h-36c0,2.2-0.9,4.2-2.3,5.7c-1.4,1.4-3.4,2.3-5.7,2.3h-4v-4h4v-4h-4h-16v-8
			H616z"/>
		<path class="st10" d="M609.1,340c1.4-2.4,4-4,6.9-4h12h44h64v20h-64h-36c-4.4,0-8,3.6-8,8v4c0,4.4-3.6,8-8,8h-12v-20v-8v-4
			C608,342.5,608.4,341.2,609.1,340z"/>
		<rect x="608" y="400" class="st9" width="128" height="64"/>
		<rect x="608" y="432" class="st13" width="128" height="32"/>
	</g>
	<g>
		<path class="st8" d="M870.9,340c-1.4-2.4-4-4-6.9-4h-12h-44h-64v128h64h44h20V344C872,342.5,871.6,341.2,870.9,340z"/>
		<path class="st12" d="M870.9,340H852h-8v24h-36h-64v4h64h36c0,2.2,0.9,4.2,2.3,5.7c1.4,1.4,3.4,2.3,5.7,2.3h1.1c1.4,2.4,4,4,6.9,4
			h12v-12v-4v-20C872,342.5,871.6,341.2,870.9,340z"/>
		<path class="st11" d="M864,356h-12v-20h-8v20h-36h-64v8h64h36c0,2.2,0.9,4.2,2.3,5.7c1.4,1.4,3.4,2.3,5.7,2.3h4v-4h-4v-4h4h16v-8
			H864z"/>
		<path class="st10" d="M870.9,340c-1.4-2.4-4-4-6.9-4h-12h-44h-64v20h64h36c4.4,0,8,3.6,8,8v4c0,4.4,3.6,8,8,8h12v-20v-8v-4
			C872,342.5,871.6,341.2,870.9,340z"/>
		<rect x="744" y="400" class="st9" width="128" height="64"/>
		<rect x="744" y="432" class="st13" width="128" height="32"/>
	</g>
	<g>
		<rect x="472" y="472" class="st8" width="128" height="128"/>
		<rect x="472" y="472" class="st10" width="128" height="20"/>
		<rect x="472" y="492" class="st11" width="128" height="8"/>
		<rect x="472" y="500" class="st12" width="128" height="4"/>
		<path class="st9" d="M512,536h88v64h-96v-56C504,539.6,507.6,536,512,536z"/>
		<path class="st13" d="M544,568h56v32h-64v-24C536,571.6,539.6,568,544,568z"/>
	</g>
	<rect x="608" y="472" class="st8" width="128" height="128"/>
	<rect x="608" y="472" class="st10" width="128" height="20"/>
	<rect x="608" y="492" class="st11" width="128" height="8"/>
	<rect x="608" y="500" class="st12" width="128" height="4"/>
	<path class="st9" d="M696,536h-88v64h96v-56C704,539.6,700.4,536,696,536z"/>
	<path class="st13" d="M664,568h-56v32h64v-24C672,571.6,668.4,568,664,568z"/>
	<g>
		<path class="st8" d="M872,480v120H744V480c0-1.5,0.4-2.8,1.1-4c0.3-0.6,0.8-1.2,1.3-1.7c1.4-1.4,3.4-2.3,5.7-2.3h112
			c3,0,5.5,1.6,6.9,4C871.6,477.2,872,478.5,872,480z"/>
		<path class="st9" d="M832,536h-48c-4.4,0-8,3.6-8,8v56h64v-56C840,539.6,836.4,536,832,536z"/>
		<rect x="744" y="472" class="st10" width="128" height="20"/>
		<rect x="744" y="492" class="st11" width="128" height="8"/>
		<rect x="744" y="500" class="st12" width="128" height="4"/>
	</g>
	<path class="st13" d="M148,744v32v24c0,4.4,3.6,8,8,8h36v-32v-32H148z"/>
	<path class="st13" d="M200,744v32v32h36c4.4,0,8-3.6,8-8v-24v-32H200z"/>
	<polygon class="st9" points="1632,400 1616,414.2 1596,432 1588,439.1 1584,442.7 1578.7,447.4 1560,464 1560,400 	"/>
	<polygon class="st13" points="1596,432 1588,439.1 1584,442.7 1578.7,447.4 1560,464 1560,432 	"/>
	<polygon class="st9" points="1552,400 1552,464 1533.3,447.4 1528,442.7 1524,439.1 1516,432 1496,414.2 1480,400 	"/>
	<polygon class="st13" points="1552,432 1552,464 1533.3,447.4 1528,442.7 1524,439.1 1516,432 	"/>
	<path class="st9" d="M1658.7,536c-4.7,10.5-11,20.1-18.7,28.6c-1.1,1.2-2.2,2.3-3.3,3.4c-0.1,0.1-0.2,0.3-0.4,0.4
		c-8.3,8.2-17.8,15.2-28.4,20.4c-14.5,7.2-30.8,11.2-48,11.2v-64L1658.7,536L1658.7,536z"/>
	<path class="st13" d="M1636.7,568c-0.1,0.1-0.2,0.3-0.4,0.4c-8.3,8.2-17.8,15.2-28.4,20.4c-14.5,7.2-30.8,11.2-48,11.2v-32
		L1636.7,568L1636.7,568z"/>
	<path class="st9" d="M1552,536v64c-17.2,0-33.5-4-48-11.2c-10.5-5.2-20.1-12.2-28.4-20.4c-0.1-0.1-0.2-0.2-0.4-0.4
		c-1.1-1.1-2.2-2.3-3.3-3.4c-7.6-8.4-14-18-18.7-28.6L1552,536L1552,536z"/>
	<path class="st13" d="M1552,568v32c-17.2,0-33.5-4-48-11.2c-10.5-5.2-20.1-12.2-28.4-20.4c-0.1-0.1-0.2-0.2-0.4-0.4L1552,568
		L1552,568z"/>
	<path class="st9" d="M1552,672v64h-16c-2.2,0-4.2-0.9-5.7-2.3c-1.4-1.5-2.3-3.5-2.3-5.7c0-8.4-1.4-16.5-4.1-24
		c-1.1-3.1-2.4-6.1-3.9-9c-4.6-8.9-11-16.7-18.8-23H1552z"/>
	<path class="st13" d="M1552,704v32h-16c-2.2,0-4.2-0.9-5.7-2.3c-1.4-1.5-2.3-3.5-2.3-5.7c0-8.4-1.4-16.5-4.1-24H1552z"/>
	<path class="st9" d="M1610.8,672c-7.7,6.3-14.2,14.1-18.8,23c-1.5,2.9-2.8,5.9-3.9,9c-2.7,7.5-4.1,15.6-4.1,24
		c0,2.2-0.9,4.2-2.3,5.7c-1.4,1.4-3.4,2.3-5.7,2.3h-16v-64H1610.8z"/>
	<path class="st13" d="M1588.1,704c-2.7,7.5-4.1,15.6-4.1,24c0,2.2-0.9,4.2-2.3,5.7c-1.4,1.4-3.4,2.3-5.7,2.3h-16v-32H1588.1z"/>
	<g>
		<path class="st8" d="M736,616v112c0,4.4-3.6,8-8,8H616c-4.4,0-8-3.6-8-8V616c0-1.5,0.4-2.8,1.1-4c0.3-0.6,0.8-1.2,1.3-1.7
			c1.4-1.4,3.4-2.3,5.7-2.3h112c3,0,5.5,1.6,6.9,4C735.6,613.2,736,614.5,736,616z"/>
		<path class="st12" d="M736,616v36h-12c-3,0-5.5-1.6-6.9-4H716c-2.2,0-4.2-0.9-5.7-2.3c-1.4-1.5-2.3-3.5-2.3-5.7h-72
			c0,2.2-0.9,4.2-2.3,5.7c-1.4,1.4-3.4,2.3-5.7,2.3h-1.1c-1.4,2.4-4,4-6.9,4h-12v-36c0-1.5,0.4-2.8,1.1-4H636v24h72v-24h26.9
			C735.6,613.2,736,614.5,736,616z"/>
		<path class="st11" d="M736,636v-8h-20v-20h-8v20h-36h-36v-20h-8v20h-20v8h20v4h-4v4h4c2.2,0,4.2-0.9,5.7-2.3
			c1.4-1.5,2.3-3.5,2.3-5.7h36h36c0,2.2,0.9,4.2,2.3,5.7c1.4,1.4,3.4,2.3,5.7,2.3h4v-4h-4v-4H736z"/>
		<path class="st10" d="M736,616v32h-12c-3,0-5.5-1.6-6.9-4c-0.7-1.2-1.1-2.5-1.1-4v-4c0-4.4-3.6-8-8-8h-72c-4.4,0-8,3.6-8,8v4
			c0,1.5-0.4,2.8-1.1,4c-1.4,2.4-4,4-6.9,4h-12v-32c0-1.5,0.4-2.8,1.1-4c0.3-0.6,0.8-1.2,1.3-1.7c1.4-1.4,3.4-2.3,5.7-2.3h112
			c3,0,5.5,1.6,6.9,4C735.6,613.2,736,614.5,736,616z"/>
		<path class="st9" d="M696,672h-48c-4.4,0-8,3.6-8,8v16c0,4.4,3.6,8,8,8h48c4.4,0,8-3.6,8-8v-16C704,675.6,700.4,672,696,672z"/>
	</g>
	<g>
		<path class="st8" d="M872,616v112c0,4.4-3.6,8-8,8H752c-4.4,0-8-3.6-8-8V616c0-1.5,0.4-2.8,1.1-4c0.3-0.6,0.8-1.2,1.3-1.7
			c1.4-1.4,3.4-2.3,5.7-2.3h112c3,0,5.5,1.6,6.9,4C871.6,613.2,872,614.5,872,616z"/>
		<path class="st9" d="M832,640h-48c-4.4,0-8,3.6-8,8v48c0,4.4,3.6,8,8,8h48c4.4,0,8-3.6,8-8v-48C840,643.6,836.4,640,832,640z"/>
	</g>
	<g>
		<rect x="1016" y="64" class="st8" width="128" height="64"/>
		<rect x="1016" y="64" class="st10" width="128" height="20"/>
		<rect x="1016" y="84" class="st11" width="128" height="8"/>
		<rect x="1016" y="92" class="st12" width="128" height="4"/>
	</g>
	<g>
		<path class="st8" d="M1280,72v48c0,4.4-3.6,8-8,8h-120V64h120c3,0,5.6,1.6,6.9,4C1279.6,69.2,1280,70.5,1280,72z"/>
		<path class="st12" d="M1278.9,68H1260h-8v24h-36h-64v4h64h36c0,2.2,0.9,4.2,2.3,5.7c1.4,1.4,3.4,2.3,5.7,2.3h1.1
			c1.4,2.4,4,4,6.9,4h12V96v-4V72C1280,70.5,1279.6,69.2,1278.9,68z"/>
		<path class="st11" d="M1272,84h-12V64h-8v20h-36h-64v8h64h36c0,2.2,0.9,4.2,2.3,5.7c1.4,1.4,3.4,2.3,5.7,2.3h4v-4h-4v-4h4h16v-8
			H1272z"/>
		<path class="st10" d="M1278.9,68c-1.4-2.4-4-4-6.9-4h-12h-44h-64v20h64h36c4.4,0,8,3.6,8,8v4c0,4.4,3.6,8,8,8h12V84v-8v-4
			C1280,70.5,1279.6,69.2,1278.9,68z"/>
	</g>
	<g>
		<path class="st8" d="M1008,64v64H888c-4.4,0-8-3.6-8-8V72c0-1.5,0.4-2.8,1.1-4c1.4-2.4,4-4,6.9-4H1008z"/>
		<path class="st12" d="M881.1,68H900h8v24h36h64v4h-64h-36c0,2.2-0.9,4.2-2.3,5.7c-1.4,1.4-3.4,2.3-5.7,2.3h-1.1
			c-1.4,2.4-4,4-6.9,4h-12V96v-4V72C880,70.5,880.4,69.2,881.1,68z"/>
		<path class="st11" d="M888,84h12V64h8v20h36h64v8h-64h-36c0,2.2-0.9,4.2-2.3,5.7c-1.4,1.4-3.4,2.3-5.7,2.3h-4v-4h4v-4h-4h-16v-8
			H888z"/>
		<path class="st10" d="M881.1,68c1.4-2.4,4-4,6.9-4h12h44h64v20h-64h-36c-4.4,0-8,3.6-8,8v4c0,4.4-3.6,8-8,8h-12V84v-8v-4
			C880,70.5,880.4,69.2,881.1,68z"/>
	</g>
	<g>
		<path class="st8" d="M1416,72v48c0,4.4-3.6,8-8,8h-112c-4.4,0-8-3.6-8-8V72c0-1.5,0.4-2.8,1.1-4c0.3-0.6,0.8-1.2,1.3-1.7
			c1.4-1.4,3.4-2.3,5.7-2.3h112c3,0,5.6,1.6,6.9,4C1415.6,69.2,1416,70.5,1416,72z"/>
		<path class="st12" d="M1416,72v36h-12c-3,0-5.5-1.6-6.9-4h-1.1c-2.2,0-4.2-0.9-5.7-2.3c-1.4-1.5-2.3-3.5-2.3-5.7h-72
			c0,2.2-0.9,4.2-2.3,5.7c-1.4,1.4-3.4,2.3-5.7,2.3h-1.1c-1.4,2.4-4,4-6.9,4h-12V72c0-1.5,0.4-2.8,1.1-4h26.9v24h72V68h26.9
			C1415.6,69.2,1416,70.5,1416,72z"/>
		<path class="st11" d="M1416,92v-8h-20V64h-8v20h-36h-36V64h-8v20h-20v8h20v4h-4v4h4c2.2,0,4.2-0.9,5.7-2.3
			c1.4-1.5,2.3-3.5,2.3-5.7h36h36c0,2.2,0.9,4.2,2.3,5.7c1.4,1.4,3.4,2.3,5.7,2.3h4v-4h-4v-4H1416z"/>
		<path class="st10" d="M1416,72v32h-12c-3,0-5.5-1.6-6.9-4c-0.7-1.2-1.1-2.5-1.1-4v-4c0-4.4-3.6-8-8-8h-72c-4.4,0-8,3.6-8,8v4
			c0,1.5-0.4,2.8-1.1,4c-1.4,2.4-4,4-6.9,4h-12V72c0-1.5,0.4-2.8,1.1-4c0.3-0.6,0.8-1.2,1.3-1.7c1.4-1.4,3.4-2.3,5.7-2.3h112
			c3,0,5.6,1.6,6.9,4C1415.6,69.2,1416,70.5,1416,72z"/>
	</g>
	<g>
		<polygon class="st8" points="1424,200 1552,328 1552,200 		"/>
		<polygon class="st9" points="1456,200 1552,296 1552,200 		"/>
		<polygon class="st13" points="1488,200 1552,264 1552,200 		"/>
	</g>
	<g>
		<polygon class="st8" points="1688,200 1560,328 1560,200 		"/>
		<polygon class="st9" points="1656,200 1560,296 1560,200 		"/>
		<polygon class="st13" points="1624,200 1560,264 1560,200 		"/>
	</g>
	<g>
		<polygon class="st8" points="1688,192 1560,64 1560,192 		"/>
		<polygon class="st9" points="1656,192 1560,96 1560,192 		"/>
		<polygon class="st13" points="1624,192 1560,128 1560,192 		"/>
	</g>
	<g>
		<polygon class="st8" points="1424,192 1552,64 1552,192 		"/>
		<polygon class="st9" points="1456,192 1552,96 1552,192 		"/>
		<polygon class="st13" points="1488,192 1552,128 1552,192 		"/>
	</g>
	<g>
		<path class="st8" d="M1280,640v96h-16c-2.2,0-4.2-0.9-5.7-2.3c-1.4-1.4-2.3-3.4-2.3-5.7c0-11.9-2.9-23.1-8-33
			c-12-23.2-36.1-39-64-39h-4c-4.4,0-8-3.6-8-8v-8H1280z"/>
		<path class="st10" d="M1280,608v20h-120c-4.4,0-8-3.6-8-8v-4c0-4.4,3.6-8,8-8H1280z"/>
		<path class="st11" d="M1280,628v8h-112c-2.2,0-4.2-0.9-5.7-2.3c-1.4-1.5-2.3-3.5-2.3-5.7H1280z"/>
		<path class="st12" d="M1280,636v4h-108c-1.1,0-2.1-0.5-2.8-1.2c-0.7-0.7-1.2-1.7-1.2-2.8H1280z"/>
		<path class="st15" d="M1280,672v32h-9.8c-1.4-6-3.5-11.7-6.2-17c-2.8-5.4-6.3-10.5-10.3-15H1280z"/>
	</g>
	<g>
		<path class="st8" d="M1280,472v128c-17.2,0-33.5-4-48-11.2c-10.6-5.2-20.1-12.2-28.4-20.4c-1.2-1.2-2.5-2.5-3.6-3.8
			c-14.9-16.4-24.8-37.4-27.3-60.6c-0.2-1.3-0.3-2.7-0.4-4c-0.2-2.6-0.3-5.3-0.3-8v-20L1280,472L1280,472z"/>
		<path class="st10" d="M1280,472v20h-120c-4.4,0-8-3.6-8-8v-4c0-4.4,3.6-8,8-8H1280z"/>
		<path class="st11" d="M1280,492v8h-112c-2.2,0-4.2-0.9-5.7-2.3c-1.4-1.5-2.3-3.5-2.3-5.7H1280z"/>
		<path class="st12" d="M1280,500v4h-108c-1.1,0-2.1-0.5-2.8-1.2c-0.7-0.7-1.2-1.7-1.2-2.8H1280z"/>
		<path class="st15" d="M1280,536v32h-43.9c-3-2.4-5.8-4.9-8.5-7.6c-1.2-1.2-2.5-2.5-3.6-3.8c-5.7-6.2-10.6-13.1-14.7-20.6L1280,536
			L1280,536z"/>
	</g>
	<g>
		<polygon class="st8" points="1280,336 1280,464 1261.3,447.4 1256,442.7 1252,439.1 1224,414.2 1172,368 1172,336 		"/>
		<path class="st10" d="M1280,336v20h-120c-4.4,0-8-3.6-8-8v-4c0-4.4,3.6-8,8-8H1280z"/>
		<path class="st11" d="M1280,356v8h-112c-2.2,0-4.2-0.9-5.7-2.3c-1.4-1.5-2.3-3.5-2.3-5.7H1280z"/>
		<path class="st12" d="M1280,364v4h-108c-1.1,0-2.1-0.5-2.8-1.2c-0.7-0.7-1.2-1.7-1.2-2.8H1280z"/>
		<polygon class="st16" points="1280,400 1280,432 1276,432 1275,431.1 1247,406.2 1240,400 		"/>
	</g>
	<g>
		<polygon class="st8" points="1288,336 1288,464 1306.7,447.4 1312,442.7 1316,439.1 1344,414.2 1396,368 1396,336 		"/>
		<path class="st10" d="M1288,336v20h120c4.4,0,8-3.6,8-8v-4c0-4.4-3.6-8-8-8H1288z"/>
		<path class="st11" d="M1288,356v8h112c2.2,0,4.2-0.9,5.7-2.3c1.4-1.5,2.3-3.5,2.3-5.7H1288z"/>
		<path class="st12" d="M1288,364v4h108c1.1,0,2.1-0.5,2.8-1.2c0.7-0.7,1.2-1.7,1.2-2.8H1288z"/>
		<polygon class="st16" points="1288,400 1288,432 1292,432 1293,431.1 1321,406.2 1328,400 		"/>
	</g>
	<g>
		<path class="st8" d="M1288,472v128c17.2,0,33.5-4,48-11.2c10.6-5.2,20.1-12.2,28.4-20.4c1.2-1.2,2.5-2.5,3.6-3.8
			c14.9-16.4,24.8-37.4,27.3-60.6c0.2-1.3,0.3-2.7,0.4-4c0.2-2.6,0.3-5.3,0.3-8v-20L1288,472L1288,472z"/>
		<path class="st10" d="M1288,472v20h120c4.4,0,8-3.6,8-8v-4c0-4.4-3.6-8-8-8H1288z"/>
		<path class="st11" d="M1288,492v8h112c2.2,0,4.2-0.9,5.7-2.3c1.4-1.5,2.3-3.5,2.3-5.7H1288z"/>
		<path class="st12" d="M1288,500v4h108c1.1,0,2.1-0.5,2.8-1.2c0.7-0.7,1.2-1.7,1.2-2.8H1288z"/>
		<path class="st15" d="M1288,536v32h43.9c3-2.4,5.8-4.9,8.5-7.6c1.2-1.2,2.5-2.5,3.6-3.8c5.7-6.2,10.6-13.1,14.7-20.6L1288,536
			L1288,536z"/>
	</g>
	<g>
		<path class="st8" d="M1288,640v96h16c2.2,0,4.2-0.9,5.7-2.3c1.4-1.4,2.3-3.4,2.3-5.7c0-11.9,2.9-23.1,8-33c12-23.2,36.1-39,64-39
			h4c4.4,0,8-3.6,8-8v-8H1288z"/>
		<path class="st10" d="M1288,608v20h120c4.4,0,8-3.6,8-8v-4c0-4.4-3.6-8-8-8H1288z"/>
		<path class="st11" d="M1288,628v8h112c2.2,0,4.2-0.9,5.7-2.3c1.4-1.5,2.3-3.5,2.3-5.7H1288z"/>
		<path class="st12" d="M1288,636v4h108c1.1,0,2.1-0.5,2.8-1.2c0.7-0.7,1.2-1.7,1.2-2.8H1288z"/>
		<path class="st15" d="M1288,672v32h9.8c1.4-6,3.5-11.7,6.2-17c2.8-5.4,6.3-10.5,10.3-15H1288z"/>
	</g>
	<ellipse class="st2" cx="128" cy="1056" rx="56" ry="96"/>
	<path class="st17" d="M112,1216l14-168.1c0.2-2.4,3.8-2.4,4,0l14,168.1H112z"/>
	<path class="st17" d="M124,1112.7l31.5-24.5c1.5-1.2,3.5,0.8,2.3,2.3l-24.5,31.5L124,1112.7z"/>
	<path class="st17" d="M125.5,1087.8l-17.1-21.9c-0.8-1.1,0.5-2.4,1.6-1.6l21.9,17.1L125.5,1087.8z"/>
	<path class="st18" d="M128,960v256h-16l5.5-65.7c-25.9-8.4-45.5-47.5-45.5-94.3C72,1003,97.1,960,128,960z"/>
	<path class="st17" d="M272,1216h-32l5.3-64l5.6-67.5l0.8-9.6l2.3-27c0.1-1.2,1-1.8,2-1.8c1,0,1.9,0.6,2,1.8l4.7,56.5l1.2,14.3
		l2.8,33.3L272,1216z"/>
	<path class="st17" d="M252,1112.7l31.5-24.5c1.5-1.2,3.5,0.8,2.3,2.3l-24.5,31.5L252,1112.7z"/>
	<path class="st17" d="M253.5,1087.8l-17.1-21.9c-0.8-1.1,0.5-2.4,1.6-1.6l21.9,17.1L253.5,1087.8z"/>
	<path class="st18" d="M256,960v256h-16l5.3-64h-40c-2.7,0-4.6-2.7-3.8-5.4L252.2,963C252.7,961,254.4,960,256,960z"/>
	<path class="st17" d="M400,1216h-32l5.4-65.2l5.5-66.3l0.8-9.6l2.3-27c0.1-1.2,1-1.8,2-1.8s1.9,0.6,2,1.8l4.7,56.5l1.2,14.3
		l2.7,32.1L400,1216z"/>
	<path class="st17" d="M380,1112.7l31.5-24.5c1.5-1.2,3.5,0.8,2.3,2.3l-24.5,31.5L380,1112.7z"/>
	<path class="st17" d="M381.5,1087.8l-17.1-21.9c-0.8-1.1,0.5-2.4,1.6-1.6l21.9,17.1L381.5,1087.8z"/>
	<path class="st17" d="M528,1216h-32l5.3-64l5.6-67.5l0.8-9.6l2.3-27c0.1-1.2,1-1.8,2-1.8c1,0,1.9,0.6,2,1.8l4.7,56.4l0,0l1.2,14.3
		l2.8,33.3L528,1216z"/>
	<path class="st17" d="M508,1112.7l31.5-24.5c1.5-1.2,3.5,0.8,2.3,2.3l-24.5,31.5L508,1112.7z"/>
	<path class="st17" d="M509.5,1087.8l-17.1-21.9c-0.8-1.1,0.5-2.4,1.6-1.6l21.9,17.1L509.5,1087.8z"/>
	<path class="st18" d="M384,960v256h-16l5.4-65.2C352,1146,336,1126.9,336,1104v-96C336,981.5,357.5,960,384,960z"/>
	<path class="st18" d="M512,960v256h-16l5.3-64h-10.7c-0.8,0-1.6-0.2-2.2-0.7c-0.7-0.4-1.2-1-1.5-1.8
		c-24.3-58.4-17.9-125.2,17.2-177.9L512,960z"/>
	<path class="st17" d="M656,1216h-32l5.4-65.2l5.5-66.3l0.8-9.6l2.3-27c0.1-1.2,1-1.8,2-1.8s1.9,0.6,2,1.8l4.7,56.4l0,0l1.2,14.3
		l2.7,32.1L656,1216z"/>
	<path class="st17" d="M636,1112.7l31.5-24.5c1.5-1.2,3.5,0.8,2.3,2.3l-24.5,31.5L636,1112.7z"/>
	<path class="st17" d="M644,1081.3l-6.5,6.5l-2.5-3.3l-14.5-18.7c-0.8-1.1,0.5-2.4,1.6-1.6l13.7,10.7l4.2,3.3L644,1081.3z"/>
	<path class="st18" d="M640,1046.1V1216h-16l5.4-65.2l5.5-66.3l-14.5-18.7c-0.8-1.1,0.5-2.4,1.6-1.6l13.7,10.7l2.3-27
		C638.1,1046.7,639.1,1046.1,640,1046.1z"/>
	<path class="st2" d="M1191.6,1076.7c0,24.6-4.8,49.4-14.6,72.8c-0.6,1.5-2.1,2.5-3.7,2.5h-42.7c-0.8,0-1.6-0.2-2.2-0.7
		c-0.6-0.4-1.2-1-1.5-1.8c-24.3-58.4-17.9-125.2,17.2-177.9l7.8-11.7l7.8,11.7C1180.8,1003.3,1191.6,1039.9,1191.6,1076.7z"/>
	<path class="st2" d="M1072,1008v96c0,13.3-5.4,25.3-14.1,33.9c-6.3,6.3-14.3,10.9-23.4,12.9c-0.9,0.2-1.7,0.4-2.6,0.5
		c-2.6,0.4-5.3,0.7-8,0.7s-5.4-0.2-8-0.7c-0.9-0.2-1.7-0.3-2.6-0.5C992,1146,976,1126.9,976,1104v-96c0-26.5,21.5-48,48-48
		S1072,981.5,1072,1008z"/>
	<path class="st2" d="M946.7,1152H845.3c-2.7,0-4.6-2.7-3.8-5.4L892.2,963c0.6-2,2.2-3,3.8-3s3.3,1,3.8,3l50.7,183.5
		C951.3,1149.3,949.3,1152,946.7,1152z"/>
	<path class="st2" d="M824,1056c0,48.4-20.9,88.4-48,95c-2.6,0.6-5.3,1-8,1s-5.4-0.3-8-1c-27.1-6.7-48-46.7-48-95
		c0-53,25.1-96,56-96S824,1003,824,1056z"/>
	<path class="st17" d="M764,1112.7l31.5-24.5c1.5-1.2,3.5,0.8,2.3,2.3l-24.5,31.5L764,1112.7z"/>
	<path class="st17" d="M765.5,1087.8l-17.1-21.9c-0.8-1.1,0.5-2.4,1.6-1.6l21.9,17.1L765.5,1087.8z"/>
	<path class="st17" d="M892,1112.7l31.5-24.5c1.5-1.2,3.5,0.8,2.3,2.3l-24.5,31.5L892,1112.7z"/>
	<path class="st17" d="M893.5,1087.8l-17.1-21.9c-0.8-1.1,0.5-2.4,1.6-1.6l21.9,17.1L893.5,1087.8z"/>
	<path class="st17" d="M1020,1112.7l31.5-24.5c1.5-1.2,3.5,0.8,2.3,2.3l-24.5,31.5L1020,1112.7z"/>
	<path class="st17" d="M1021.5,1087.8l-17.1-21.9c-0.8-1.1,0.5-2.4,1.6-1.6l21.9,17.1L1021.5,1087.8z"/>
	<path class="st17" d="M1148,1112.7l31.5-24.5c1.5-1.2,3.5,0.8,2.3,2.3l-24.5,31.5L1148,1112.7z"/>
	<path class="st17" d="M1149.5,1087.8l-17.1-21.9c-0.8-1.1,0.5-2.4,1.6-1.6l21.9,17.1L1149.5,1087.8z"/>
	<path class="st17" d="M776,1056v160h-16v-160c0-4.4,3.6-8,8-8S776,1051.6,776,1056z"/>
	<path class="st18" d="M768,960v256h-8v-65c-27.1-6.7-48-46.7-48-95C712,1003,737.1,960,768,960z"/>
	<path class="st17" d="M904,1056v160h-16v-160c0-4.4,3.6-8,8-8S904,1051.6,904,1056z"/>
	<path class="st17" d="M1032,1056v160h-16v-160c0-4.4,3.6-8,8-8S1032,1051.6,1032,1056z"/>
	<path class="st17" d="M1160,1056v160h-16v-160c0-4.4,3.6-8,8-8S1160,1051.6,1160,1056z"/>
	<path class="st17" d="M1275.8,1112.7l31.5-24.5c1.5-1.2,3.5,0.8,2.3,2.3l-24.5,31.5L1275.8,1112.7z"/>
	<path class="st17" d="M1283.8,1081.3l-6.5,6.5l-5.5-7.1l-11.6-14.9c-0.8-1.1,0.6-2.4,1.6-1.6l10,7.7l8.2,6.4L1283.8,1081.3z"/>
	<path class="st17" d="M1287.8,1056v160h-16v-160c0-4.4,3.6-8,8-8h0.2C1284.3,1048.1,1287.8,1051.6,1287.8,1056z"/>
	<path class="st18" d="M896,960v256h-8v-64h-42.7c-2.7,0-4.6-2.7-3.8-5.4L892.2,963C892.7,961,894.4,960,896,960z"/>
	<path class="st18" d="M1024,960v256h-8v-64.7c-0.9-0.2-1.7-0.3-2.6-0.5C992,1146,976,1126.9,976,1104v-96
		C976,981.5,997.5,960,1024,960z"/>
	<path class="st18" d="M1152,960v256h-8v-64h-13.3c-0.8,0-1.6-0.2-2.2-0.7c-0.6-0.4-1.2-1-1.5-1.8c-24.3-58.4-17.9-125.2,17.2-177.9
		L1152,960z"/>
	<path class="st18" d="M1280,1048v168h-8.2v-135.3l-11.6-14.9c-0.8-1.1,0.6-2.4,1.6-1.6l10,7.7v-16c0-4.4,3.6-8,8-8h0.2V1048z"/>
	<rect x="1400" y="1088" class="st17" width="16" height="128"/>
	<rect x="1400" y="1088" class="st18" width="8.2" height="128"/>
	<circle class="st19" cx="506" cy="1386" r="4"/>
	<circle class="st19" cx="526" cy="1398" r="6"/>
	<circle class="st19" cx="612" cy="1380" r="4"/>
	<circle class="st19" cx="634" cy="1398" r="6"/>
	<rect x="760" y="1344" class="st20" width="16" height="64"/>
	<path class="st19" d="M744,1364h48c4.4,0,8-3.6,8-8l0,0c0-7.6-3.6-14.7-9.6-19.2l0,0c-13.3-10-31.5-10-44.8,0l0,0
		c-6,4.5-9.6,11.6-9.6,19.2l0,0C736,1360.4,739.6,1364,744,1364z"/>
	<circle class="st3" cx="748" cy="1348" r="4"/>
	<circle class="st3" cx="772" cy="1340" r="4"/>
	<circle class="st3" cx="780" cy="1356" r="4"/>
	<circle class="st3" cx="754" cy="1338" r="2"/>
	<circle class="st3" cx="762" cy="1354" r="2"/>
	<circle class="st3" cx="790" cy="1346" r="2"/>
	<rect x="888" y="1344" class="st20" width="16" height="64"/>
	<path class="st19" d="M872,1364h48c4.4,0,8-3.6,8-8l0,0c0-7.6-3.6-14.7-9.6-19.2l0,0c-13.3-10-31.5-10-44.8,0l0,0
		c-6,4.5-9.6,11.6-9.6,19.2l0,0C864,1360.4,867.6,1364,872,1364z"/>
	<circle class="st3" cx="876" cy="1348" r="4"/>
	<circle class="st3" cx="900" cy="1340" r="4"/>
	<circle class="st3" cx="908" cy="1356" r="4"/>
	<circle class="st3" cx="882" cy="1338" r="2"/>
	<circle class="st3" cx="890" cy="1354" r="2"/>
	<circle class="st3" cx="918" cy="1346" r="2"/>
	<rect x="876" y="1376" class="st20" width="8" height="32"/>
	<path class="st19" d="M868,1386h24c2.2,0,4-1.8,4-4l0,0c0-3.8-1.8-7.3-4.8-9.6l0,0c-6.6-5-15.8-5-22.4,0l0,0
		c-3,2.3-4.8,5.8-4.8,9.6l0,0C864,1384.2,865.8,1386,868,1386z"/>
	<rect x="918" y="1392" class="st20" width="4" height="16"/>
	<path class="st19" d="M914,1397h12c1.1,0,2-0.9,2-2l0,0c0-1.9-0.9-3.7-2.4-4.8l0,0c-3.3-2.5-7.9-2.5-11.2,0l0,0
		c-1.5,1.1-2.4,2.9-2.4,4.8l0,0C912,1396.1,912.9,1397,914,1397z"/>
	<rect x="1016" y="1376" class="st20" width="8" height="32"/>
	<path class="st19" d="M1008,1386h24c2.2,0,4-1.8,4-4l0,0c0-3.8-1.8-7.3-4.8-9.6l0,0c-6.6-5-15.8-5-22.4,0l0,0
		c-3,2.3-4.8,5.8-4.8,9.6l0,0C1004,1384.2,1005.8,1386,1008,1386z"/>
	<rect x="1034" y="1392" class="st20" width="4" height="16"/>
	<path class="st19" d="M1030,1397h12c1.1,0,2-0.9,2-2l0,0c0-1.9-0.9-3.7-2.4-4.8l0,0c-3.3-2.5-7.9-2.5-11.2,0l0,0
		c-1.5,1.1-2.4,2.9-2.4,4.8l0,0C1028,1396.1,1028.9,1397,1030,1397z"/>
	<rect x="1010" y="1392" class="st20" width="4" height="16"/>
	<path class="st19" d="M1006,1397h12c1.1,0,2-0.9,2-2l0,0c0-1.9-0.9-3.7-2.4-4.8l0,0c-3.3-2.5-7.9-2.5-11.2,0l0,0
		c-1.5,1.1-2.4,2.9-2.4,4.8l0,0C1004,1396.1,1004.9,1397,1006,1397z"/>
	<path class="st2" d="M140,1385.5v22.5h-24v-22.5c0-1.7,0.3-3.3,0.8-4.7c1.7-5.1,6.1-8.8,11.2-8.8c3.7,0,7,1.9,9.2,4.9
		c1.6,2.1,2.5,4.7,2.7,7.6C140,1384.8,140,1385.2,140,1385.5z"/>
	<path class="st2" d="M160,1396v12h-24v-12c0-3.5,1.5-6.7,4-8.9c2.1-1.9,4.9-3.1,8-3.1c0.3,0,0.7,0,1,0c0.6,0,1.2,0.1,1.8,0.3
		c2.3,0.5,4.4,1.8,6,3.5C158.8,1389.9,160,1392.8,160,1396z"/>
	<path class="st2" d="M180,1392v16h-24v-16c0-1.5,0.3-2.9,0.8-4.2c1.2-3.3,3.9-5.9,7.2-7.1c1.3-0.4,2.6-0.7,4-0.7
		C174.6,1380,180,1385.4,180,1392z"/>
	<path class="st2" d="M120,1392v16H96v-16c0-1.5,0.3-2.9,0.8-4.2c0.7-1.8,1.8-3.5,3.2-4.7c2.1-1.9,4.9-3.1,8-3.1
		c3.5,0,6.6,1.5,8.8,3.8C118.8,1385.9,120,1388.8,120,1392z"/>
	<path class="st2" d="M100,1396v12H76v-12c0-4.3,2.3-8.1,5.8-10.3c1.8-1.1,4-1.8,6.3-1.8c3.5,0,6.6,1.5,8.8,3.8
		C98.8,1389.9,100,1392.8,100,1396z"/>
	<path class="st21" d="M1151.7,1344L1151.7,1344c-6.6,0-12,5.4-12,12v52h52v-24C1191.7,1361.9,1173.8,1344,1151.7,1344z"/>
	<path class="st22" d="M1151.7,1372L1151.7,1372c-15.5,0-28,12.5-28,28v8h40v-24C1163.7,1377.4,1158.3,1372,1151.7,1372z"/>
	<path class="st7" d="M1248.3,1328L1248.3,1328c-6.6,0-12,5.4-12,12v68h35.7v-56.3C1272,1338.6,1261.4,1328,1248.3,1328z"/>
	<path class="st21" d="M1304,1360h-7.7c-26.5,0-48,21.5-48,48l0,0h67.7v-36C1316,1365.4,1310.6,1360,1304,1360z"/>
	<path class="st22" d="M1296,1376L1296,1376c-6.6,0-12,5.4-12,12v20h40v-4C1324,1388.5,1311.5,1376,1296,1376z"/>
	<path class="st7" d="M1412,1348L1412,1348c-6.6,0-12,5.4-12,12v48h52v-20C1452,1365.9,1434.1,1348,1412,1348z"/>
	<path class="st21" d="M1404,1364L1404,1364c-22.1,0-40,17.9-40,40v4h52v-32C1416,1369.4,1410.6,1364,1404,1364z"/>
	<path class="st22" d="M1436,1384h-40c-13.3,0-24,10.7-24,24l0,0h76v-12C1448,1389.4,1442.6,1384,1436,1384z"/>
	<path class="st23" d="M107.7,1552L107.7,1552c-10.9,0-19.7,8.8-19.7,19.7v28.3h31.7v-36C119.7,1557.4,114.3,1552,107.7,1552z"/>
	<path class="st24" d="M127.7,1536L127.7,1536c-6.6,0-12,5.4-12,12v52h52v-24C167.7,1553.9,149.8,1536,127.7,1536z"/>
	<path class="st25" d="M127.7,1564L127.7,1564c-15.5,0-28,12.5-28,28v8h40v-24C139.7,1569.4,134.3,1564,127.7,1564z"/>
	<path class="st23" d="M224.3,1520L224.3,1520c-6.6,0-12,5.4-12,12v68H248v-56.3C248,1530.6,237.4,1520,224.3,1520z"/>
	<path class="st24" d="M280,1552h-7.7c-26.5,0-48,21.5-48,48l0,0H292v-36C292,1557.4,286.6,1552,280,1552z"/>
	<path class="st25" d="M272,1568L272,1568c-6.6,0-12,5.4-12,12v20h40v-4C300,1580.5,287.5,1568,272,1568z"/>
	<path class="st23" d="M388,1540L388,1540c-6.6,0-12,5.4-12,12v48h52v-20C428,1557.9,410.1,1540,388,1540z"/>
	<path class="st24" d="M380,1556L380,1556c-22.1,0-40,17.9-40,40v4h52v-32C392,1561.4,386.6,1556,380,1556z"/>
	<path class="st25" d="M412,1576h-40c-13.3,0-24,10.7-24,24l0,0h76v-12C424,1581.4,418.6,1576,412,1576z"/>
	<path class="st26" d="M510.1,1484.3l4.1-6.4c1.9-2.9,6.4-0.8,5.4,2.5l-2.2,7.2L510.1,1484.3z"/>
	<path class="st26" d="M517.3,1487.7l6.4,4.1c2.9,1.9,0.8,6.4-2.5,5.4l-7.2-2.2L517.3,1487.7z"/>
	<path class="st26" d="M506.7,1491.5l-6.4-4.1c-2.9-1.9-0.8-6.4,2.5-5.4l7.2,2.2L506.7,1491.5z"/>
	<path class="st26" d="M513.9,1494.9l-4.1,6.4c-1.9,2.9-6.4,0.8-5.4-2.5l2.2-7.2L513.9,1494.9z"/>
	<ellipse transform="matrix(0.4213 -0.9069 0.9069 0.4213 -1054.7041 1326.3525)" class="st3" cx="512" cy="1489.6" rx="6" ry="6"/>
	<path class="st2" d="M512,1544L512,1544c1.7-8.6,8.4-15.3,17-17l0,0l0,0C527.3,1535.6,520.6,1542.3,512,1544L512,1544z"/>
	<path class="st2" d="M495,1527L495,1527c8.6,1.7,15.3,8.4,17,17l0,0l0,0C503.4,1542.3,496.7,1535.6,495,1527L495,1527z"/>
	<rect x="638" y="1545.6" class="st5" width="4" height="54.4"/>
	<path class="st6" d="M642.3,1536.3l7.4-1.6c3.4-0.7,5.1,4,2,5.6l-6.7,3.5L642.3,1536.3z"/>
	<path class="st6" d="M645.1,1543.8l1.6,7.4c0.7,3.4-4,5.1-5.6,2l-3.5-6.7L645.1,1543.8z"/>
	<path class="st6" d="M634.8,1539l-1.6-7.4c-0.7-3.4,4-5.1,5.6-2l3.5,6.7L634.8,1539z"/>
	<path class="st6" d="M637.6,1546.5l-7.4,1.6c-3.4,0.7-5.1-4-2-5.6l6.7-3.5L637.6,1546.5z"/>
	<path class="st26" d="M638.1,1536.3l4.1-6.4c1.9-2.9,6.4-0.8,5.4,2.5l-2.2,7.2L638.1,1536.3z"/>
	<path class="st26" d="M645.3,1539.7l6.4,4.1c2.9,1.9,0.8,6.4-2.5,5.4l-7.2-2.2L645.3,1539.7z"/>
	<path class="st26" d="M634.7,1543.5l-6.4-4.1c-2.9-1.9-0.8-6.4,2.5-5.4l7.2,2.2L634.7,1543.5z"/>
	<path class="st26" d="M641.9,1546.9l-4.1,6.4c-1.9,2.9-6.4,0.8-5.4-2.5l2.2-7.2L641.9,1546.9z"/>
	<ellipse transform="matrix(0.4213 -0.9069 0.9069 0.4213 -1027.7949 1472.533)" class="st3" cx="640" cy="1541.6" rx="6" ry="6"/>
	<path class="st2" d="M640,1579.5L640,1579.5c1.7-8.6,8.4-15.3,17-17l0,0l0,0C655.3,1571.1,648.6,1577.8,640,1579.5L640,1579.5z"/>
	<path class="st2" d="M623,1562.6L623,1562.6c8.6,1.7,15.3,8.4,17,17l0,0l0,0C631.4,1577.8,624.7,1571.1,623,1562.6L623,1562.6z"/>
	<rect x="766" y="1472" class="st5" width="4" height="128"/>
	<rect x="894" y="1472" class="st5" width="4" height="128"/>
	<path class="st2" d="M896,1544L896,1544c1.7-8.6,8.4-15.3,17-17l0,0l0,0C911.3,1535.6,904.6,1542.3,896,1544L896,1544z"/>
	<path class="st2" d="M879,1527L879,1527c8.6,1.7,15.3,8.4,17,17l0,0l0,0C887.4,1542.3,880.7,1535.6,879,1527L879,1527z"/>
	<rect x="1016" y="1536" class="st20" width="16" height="64"/>
	<path class="st27" d="M1000,1556h48c4.4,0,8-3.6,8-8l0,0c0-7.6-3.6-14.7-9.6-19.2l0,0c-13.3-10-31.5-10-44.8,0l0,0
		c-6,4.5-9.6,11.6-9.6,19.2l0,0C992,1552.4,995.6,1556,1000,1556z"/>
	<circle class="st3" cx="1004" cy="1540" r="4"/>
	<circle class="st3" cx="1028" cy="1532" r="4"/>
	<circle class="st3" cx="1036" cy="1548" r="4"/>
	<circle class="st3" cx="1010" cy="1530" r="2"/>
	<circle class="st3" cx="1018" cy="1546" r="2"/>
	<circle class="st3" cx="1046" cy="1538" r="2"/>
	<rect x="1144" y="1536" class="st20" width="16" height="64"/>
	<path class="st27" d="M1128,1556h48c4.4,0,8-3.6,8-8l0,0c0-7.6-3.6-14.7-9.6-19.2l0,0c-13.3-10-31.5-10-44.8,0l0,0
		c-6,4.5-9.6,11.6-9.6,19.2l0,0C1120,1552.4,1123.6,1556,1128,1556z"/>
	<circle class="st3" cx="1132" cy="1540" r="4"/>
	<circle class="st3" cx="1156" cy="1532" r="4"/>
	<circle class="st3" cx="1164" cy="1548" r="4"/>
	<circle class="st3" cx="1138" cy="1530" r="2"/>
	<circle class="st3" cx="1146" cy="1546" r="2"/>
	<circle class="st3" cx="1174" cy="1538" r="2"/>
	<rect x="1132" y="1568" class="st20" width="8" height="32"/>
	<path class="st27" d="M1124,1578h24c2.2,0,4-1.8,4-4l0,0c0-3.8-1.8-7.3-4.8-9.6l0,0c-6.6-5-15.8-5-22.4,0l0,0
		c-3,2.3-4.8,5.8-4.8,9.6l0,0C1120,1576.2,1121.8,1578,1124,1578z"/>
	<rect x="1174" y="1584" class="st20" width="4" height="16"/>
	<path class="st27" d="M1170,1589h12c1.1,0,2-0.9,2-2l0,0c0-1.9-0.9-3.7-2.4-4.8l0,0c-3.3-2.5-7.9-2.5-11.2,0l0,0
		c-1.5,1.1-2.4,2.9-2.4,4.8l0,0C1168,1588.1,1168.9,1589,1170,1589z"/>
	<rect x="1272" y="1568" class="st20" width="8" height="32"/>
	<path class="st27" d="M1264,1578h24c2.2,0,4-1.8,4-4l0,0c0-3.8-1.8-7.3-4.8-9.6l0,0c-6.6-5-15.8-5-22.4,0l0,0
		c-3,2.3-4.8,5.8-4.8,9.6l0,0C1260,1576.2,1261.8,1578,1264,1578z"/>
	<rect x="1290" y="1584" class="st20" width="4" height="16"/>
	<path class="st27" d="M1286,1589h12c1.1,0,2-0.9,2-2l0,0c0-1.9-0.9-3.7-2.4-4.8l0,0c-3.3-2.5-7.9-2.5-11.2,0l0,0
		c-1.5,1.1-2.4,2.9-2.4,4.8l0,0C1284,1588.1,1284.9,1589,1286,1589z"/>
	<rect x="1266" y="1584" class="st20" width="4" height="16"/>
	<path class="st27" d="M1262,1589h12c1.1,0,2-0.9,2-2l0,0c0-1.9-0.9-3.7-2.4-4.8l0,0c-3.3-2.5-7.9-2.5-11.2,0l0,0
		c-1.5,1.1-2.4,2.9-2.4,4.8l0,0C1260,1588.1,1260.9,1589,1262,1589z"/>
	<rect x="1406" y="1493.6" class="st5" width="4" height="106.4"/>
	<path class="st28" d="M1410.3,1484.3l7.4-1.6c3.4-0.7,5.1,4,2,5.6l-6.7,3.5L1410.3,1484.3z"/>
	<path class="st28" d="M1413.1,1491.8l1.6,7.4c0.7,3.4-4,5.1-5.6,2l-3.5-6.7L1413.1,1491.8z"/>
	<path class="st28" d="M1402.8,1487l-1.6-7.4c-0.7-3.4,4-5.1,5.6-2l3.5,6.7L1402.8,1487z"/>
	<path class="st28" d="M1405.6,1494.5l-7.4,1.6c-3.4,0.7-5.1-4-2-5.6l6.7-3.5L1405.6,1494.5z"/>
	<path class="st29" d="M1406.1,1484.3l4.1-6.4c1.9-2.9,6.4-0.8,5.4,2.5l-2.2,7.2L1406.1,1484.3z"/>
	<path class="st29" d="M1413.3,1487.7l6.4,4.1c2.9,1.9,0.8,6.4-2.5,5.4l-7.2-2.2L1413.3,1487.7z"/>
	<path class="st29" d="M1402.7,1491.5l-6.4-4.1c-2.9-1.9-0.8-6.4,2.5-5.4l7.2,2.2L1402.7,1491.5z"/>
	<path class="st29" d="M1409.9,1494.9l-4.1,6.4c-1.9,2.9-6.4,0.8-5.4-2.5l2.2-7.2L1409.9,1494.9z"/>
	<ellipse transform="matrix(0.4213 -0.9069 0.9069 0.4213 -536.2114 2138.9773)" class="st3" cx="1408" cy="1489.7" rx="6" ry="6"/>
	<path class="st2" d="M1408,1544L1408,1544c1.7-8.6,8.4-15.3,17-17l0,0l0,0C1423.3,1535.6,1416.6,1542.3,1408,1544L1408,1544z"/>
	<path class="st2" d="M1391,1527L1391,1527c8.6,1.7,15.3,8.4,17,17l0,0l0,0C1399.4,1542.3,1392.7,1535.6,1391,1527L1391,1527z"/>
	<rect x="1534" y="1545.6" class="st5" width="4" height="54.4"/>
	<path class="st28" d="M1538.3,1536.3l7.4-1.6c3.4-0.7,5.1,4,2,5.6l-6.7,3.5L1538.3,1536.3z"/>
	<path class="st28" d="M1541.1,1543.8l1.6,7.4c0.7,3.4-4,5.1-5.6,2l-3.5-6.7L1541.1,1543.8z"/>
	<path class="st28" d="M1530.8,1539l-1.6-7.4c-0.7-3.4,4-5.1,5.6-2l3.5,6.7L1530.8,1539z"/>
	<path class="st28" d="M1533.6,1546.5l-7.4,1.6c-3.4,0.7-5.1-4-2-5.6l6.7-3.5L1533.6,1546.5z"/>
	<path class="st29" d="M1534.1,1536.3l4.1-6.4c1.9-2.9,6.4-0.8,5.4,2.5l-2.2,7.2L1534.1,1536.3z"/>
	<path class="st29" d="M1541.3,1539.7l6.4,4.1c2.9,1.9,0.8,6.4-2.5,5.4l-7.2-2.2L1541.3,1539.7z"/>
	<path class="st29" d="M1530.7,1543.5l-6.4-4.1c-2.9-1.9-0.8-6.4,2.5-5.4l7.2,2.2L1530.7,1543.5z"/>
	<path class="st29" d="M1537.9,1546.9l-4.1,6.4c-1.9,2.9-6.4,0.8-5.4-2.5l2.2-7.2L1537.9,1546.9z"/>
	<ellipse transform="matrix(0.4213 -0.9069 0.9069 0.4213 -509.3022 2285.1577)" class="st3" cx="1536" cy="1541.7" rx="6" ry="6"/>
	<path class="st2" d="M1536,1579.5L1536,1579.5c1.7-8.6,8.4-15.3,17-17l0,0l0,0C1551.3,1571.1,1544.6,1577.8,1536,1579.5
		L1536,1579.5z"/>
	<path class="st2" d="M1519,1562.6L1519,1562.6c8.6,1.7,15.3,8.4,17,17l0,0l0,0C1527.4,1577.8,1520.7,1571.1,1519,1562.6
		L1519,1562.6z"/>
	<path class="st3" d="M174,1772H82c-5.5,0-10,4.5-10,10l0,0c0,5.5,4.5,10,10,10h92c5.5,0,10-4.5,10-10l0,0
		C184,1776.5,179.5,1772,174,1772z"/>
	<path class="st3" d="M164,1760h-64c-4.4,0-8,3.6-8,8l0,0c0,4.4,3.6,8,8,8h64c4.4,0,8-3.6,8-8l0,0C172,1763.6,168.4,1760,164,1760z"
		/>
	<path class="st3" d="M152,1748h-32c-4.4,0-8,3.6-8,8l0,0c0,4.4,3.6,8,8,8h32c4.4,0,8-3.6,8-8l0,0C160,1751.6,156.4,1748,152,1748z"
		/>
	<path class="st3" d="M288,1776h-64c-4.4,0-8,3.6-8,8l0,0c0,4.4,3.6,8,8,8h64c4.4,0,8-3.6,8-8l0,0C296,1779.6,292.4,1776,288,1776z"
		/>
	<path class="st3" d="M272,1764h-32c-4.4,0-8,3.6-8,8l0,0c0,4.4,3.6,8,8,8h32c4.4,0,8-3.6,8-8l0,0C280,1767.6,276.4,1764,272,1764z"
		/>
	<path class="st3" d="M260,1752h-8c-4.4,0-8,3.6-8,8l0,0c0,4.4,3.6,8,8,8h8c4.4,0,8-3.6,8-8l0,0C268,1755.6,264.4,1752,260,1752z"/>
	<path class="st3" d="M416,1776h-64c-4.4,0-8,3.6-8,8l0,0c0,4.4,3.6,8,8,8h64c4.4,0,8-3.6,8-8l0,0C424,1779.6,420.4,1776,416,1776z"
		/>
	<path class="st3" d="M404,1764h-28c-4.4,0-8,3.6-8,8l0,0c0,4.4,3.6,8,8,8h28c4.4,0,8-3.6,8-8l0,0C412,1767.6,408.4,1764,404,1764z"
		/>
	<path class="st4" d="M172,1764h-32c-4.4,0-8,3.6-8,8l0,0c0,4.4,3.6,8,8,8h32c4.4,0,8-3.6,8-8l0,0C180,1767.6,176.4,1764,172,1764z"
		/>
	<path class="st4" d="M116,1764H84c-4.4,0-8,3.6-8,8l0,0c0,4.4,3.6,8,8,8h32c4.4,0,8-3.6,8-8l0,0C124,1767.6,120.4,1764,116,1764z"
		/>
	<path class="st4" d="M260,1768h-32c-4.4,0-8,3.6-8,8l0,0c0,4.4,3.6,8,8,8h32c4.4,0,8-3.6,8-8l0,0C268,1771.6,264.4,1768,260,1768z"
		/>
	<path class="st4" d="M268,1756h-12c-4.4,0-8,3.6-8,8l0,0c0,4.4,3.6,8,8,8h12c4.4,0,8-3.6,8-8l0,0C276,1759.6,272.4,1756,268,1756z"
		/>
	<path class="st4" d="M276,1768h-12c-4.4,0-8,3.6-8,8l0,0c0,4.4,3.6,8,8,8h12c4.4,0,8-3.6,8-8l0,0C284,1771.6,280.4,1768,276,1768z"
		/>
	<path class="st4" d="M376,1768h-12c-4.4,0-8,3.6-8,8l0,0c0,4.4,3.6,8,8,8h12c4.4,0,8-3.6,8-8l0,0C384,1771.6,380.4,1768,376,1768z"
		/>
	<path class="st4" d="M408,1768h-12c-4.4,0-8,3.6-8,8l0,0c0,4.4,3.6,8,8,8h12c4.4,0,8-3.6,8-8l0,0C416,1771.6,412.4,1768,408,1768z"
		/>
	<g>
		<path class="st3" d="M869.1,750.4c-4.8-0.6-9.4-2.8-13.1-6.4c-3.7,3.7-8.3,5.8-13.1,6.4c-1,0.1-1.9,0.2-2.9,0.2s-1.9-0.1-2.9-0.2
			c-4.8-0.6-9.4-2.8-13.1-6.4c-3.7,3.7-8.3,5.8-13.1,6.4c-1,0.1-1.9,0.2-2.9,0.2s-1.9-0.1-2.9-0.2c-4.8-0.6-9.4-2.8-13.1-6.4
			c-3.7,3.7-8.3,5.8-13.1,6.4c-1,0.1-1.9,0.2-2.9,0.2s-1.9-0.1-2.9-0.2c-4.8-0.6-9.4-2.8-13.1-6.4c-3.7,3.7-8.3,5.8-13.1,6.4
			c-1,0.1-1.9,0.2-2.9,0.2V856h112h16V750.6C871,750.6,870.1,750.6,869.1,750.4z"/>
		<path class="st30" d="M869.1,754.4c-1.7-0.2-3.4-0.6-5.1-1.3c-2.9-1.1-5.7-2.8-8-5.2c-2.3,2.3-5.1,4.1-8,5.2
			c-1.7,0.6-3.4,1.1-5.1,1.3c-1,0.1-1.9,0.2-2.9,0.2s-1.9-0.1-2.9-0.2c-1.7-0.2-3.4-0.6-5.1-1.3c-2.9-1.1-5.7-2.8-8-5.2
			c-2.3,2.3-5.1,4.1-8,5.2c-1.7,0.6-3.4,1.1-5.1,1.3c-1,0.1-1.9,0.2-2.9,0.2s-1.9-0.1-2.9-0.2c-1.7-0.2-3.4-0.6-5.1-1.3
			c-2.9-1.1-5.7-2.8-8-5.2c-2.3,2.3-5.1,4.1-8,5.2c-1.7,0.6-3.4,1.1-5.1,1.3c-1,0.1-1.9,0.2-2.9,0.2s-1.9-0.1-2.9-0.2
			c-1.7-0.2-3.4-0.6-5.1-1.3c-2.9-1.1-5.7-2.8-8-5.2c-2.3,2.3-5.1,4.1-8,5.2c-1.7,0.6-3.4,1.1-5.1,1.3c-1,0.1-1.9,0.2-2.9,0.2V860
			h112h16V754.6C871,754.6,870.1,754.6,869.1,754.4z"/>
		<path class="st3" d="M872,748v112H744V748c0.9,0.9,1.9,1.7,2.9,2.4c1.6,1.1,3.3,2.1,5.1,2.7c5.2,2,10.8,2,16,0
			c1.8-0.7,3.5-1.6,5.1-2.7c1-0.7,2-1.5,2.9-2.4c0.9,0.9,1.9,1.7,2.9,2.4c1.6,1.1,3.3,2.1,5.1,2.7c2.6,1,5.3,1.5,8,1.5
			s5.4-0.5,8-1.5c1.8-0.7,3.5-1.6,5.1-2.7c1-0.7,2-1.5,2.9-2.4c0.9,0.9,1.9,1.7,2.9,2.4c1.6,1.1,3.3,2.1,5.1,2.7
			c2.6,1,5.3,1.5,8,1.5s5.4-0.5,8-1.5c1.8-0.7,3.5-1.6,5.1-2.7c1-0.7,2-1.5,2.9-2.4c0.9,0.9,1.9,1.7,2.9,2.4
			c1.6,1.1,3.3,2.1,5.1,2.7c2.6,1,5.3,1.5,8,1.5s5.4-0.5,8-1.5c1.8-0.7,3.5-1.6,5.1-2.7C870.1,749.7,871.1,748.9,872,748z"/>
		<path class="st31" d="M869.1,754.4c-3.9,2.8-8.5,4.2-13.1,4.2s-9.2-1.4-13.1-4.2c-1-0.7-2-1.5-2.9-2.4c-0.9,0.9-1.9,1.7-2.9,2.4
			c-3.9,2.8-8.5,4.2-13.1,4.2s-9.2-1.4-13.1-4.2c-1-0.7-2-1.5-2.9-2.4c-0.9,0.9-1.9,1.7-2.9,2.4c-3.9,2.8-8.5,4.2-13.1,4.2
			s-9.2-1.4-13.1-4.2c-1-0.7-2-1.5-2.9-2.4c-0.9,0.9-1.9,1.7-2.9,2.4c-7.8,5.6-18.4,5.6-26.2,0c-1-0.7-2-1.5-2.9-2.4v108v4v8h128v-8
			v-4V752C871.1,752.9,870.1,753.7,869.1,754.4z"/>
	</g>
	<path class="st30" d="M704,748c-8.8,8.8-23.2,8.8-32,0c-8.8,8.8-23.2,8.8-32,0c-8.8,8.8-23.2,8.8-32,0l0,0v112v12h128v-12V748l0,0
		C727.2,756.8,712.8,756.8,704,748z"/>
	<path class="st31" d="M568,748c-8.8,8.8-23.2,8.8-32,0c-8.8,8.8-23.2,8.8-32,0c-8.8,8.8-23.2,8.8-32,0l0,0v112v12h128v-12V748l0,0
		C591.2,756.8,576.8,756.8,568,748z"/>
	<rect x="880" y="744" class="st31" width="128" height="128"/>
	<rect x="1016" y="744" class="st30" width="128" height="128"/>
	<g>
		<path class="st1" d="M288,1392v16h-24v-16c0-2.3,0.6-4.4,1.8-6.3c2.1-3.4,5.9-5.8,10.3-5.8c1.1,0,2.1,0.1,3.1,0.4
			c1.8,0.5,3.5,1.4,4.9,2.6c1.5,1.3,2.7,3,3.3,5c0.1,0.2,0.1,0.3,0.2,0.5c0.3,0.9,0.5,1.9,0.5,2.9C288,1391.6,288,1391.8,288,1392z"
			/>
		<path class="st1" d="M300,1400v8h-24v-8c0-2.3,0.6-4.4,1.8-6.3c0.6-1,1.4-1.9,2.3-2.7c1.1-1,2.4-1.8,3.9-2.3h0.1
			c1-0.4,2.2-0.6,3.3-0.7c0.2,0,0.5,0,0.7,0c1.2,0,2.4,0.2,3.5,0.5c1.7,0.5,3.2,1.4,4.5,2.5C298.5,1393.3,300,1396.4,300,1400z"/>
		<path class="st1" d="M248,1392v16h-24v-16c0-2.3,0.6-4.4,1.8-6.3c0.3-0.5,0.7-1,1-1.4c0.1-0.1,0.1-0.2,0.2-0.3
			c1.5-1.7,3.6-3,5.9-3.6c0.8-0.2,1.7-0.4,2.6-0.4c0.2,0,0.4,0,0.5,0c1.4,0,2.8,0.2,4,0.7c1.5,0.5,2.8,1.3,4,2.4
			C246.5,1385.3,248,1388.4,248,1392z"/>
		<path class="st1" d="M236,1396v12h-24v-12c0-2.3,0.6-4.4,1.8-6.3c2-3.2,5.3-5.4,9.3-5.7c0.3,0,0.7-0.1,1-0.1c1,0,1.9,0.1,2.8,0.3
			c0.4,0.1,0.8,0.2,1.2,0.4c1.5,0.5,2.8,1.3,4,2.4c0.1,0,0.1,0.1,0.2,0.2c2.2,2.1,3.7,5,3.8,8.2C236,1395.6,236,1395.8,236,1396z"/>
		<path class="st2" d="M256,1389.5v18.5h-24v-18.5c0-0.3,0-0.5,0-0.8c0-0.5,0.1-1,0.2-1.5c0.1-0.8,0.3-1.7,0.6-2.5
			c0-0.1,0.1-0.2,0.1-0.3c0.6-1.6,1.5-3.1,2.6-4.4c1.3-1.4,2.8-2.6,4.6-3.3c1.2-0.5,2.6-0.8,4-0.8c3.7,0,7,1.9,9.2,4.9
			c1.6,2.1,2.5,4.7,2.7,7.6C256,1388.8,256,1389.1,256,1389.5z"/>
		<path class="st2" d="M264,1373.5v22.5h-24v-22.5c0-1.7,0.3-3.3,0.8-4.7c1.7-5.1,6.1-8.8,11.2-8.8c3.7,0,7,1.9,9.2,4.9
			c1.6,2.1,2.5,4.7,2.7,7.6C264,1372.8,264,1373.2,264,1373.5z"/>
		<path class="st2" d="M280,1385.5v22.5h-24v-22.5c0-1.7,0.3-3.3,0.8-4.7c1.2-3.7,3.9-6.7,7.2-8c1.3-0.5,2.6-0.8,4-0.8
			c3.7,0,7,1.9,9.2,4.9c0.8,1.1,1.4,2.3,1.9,3.5c0.5,1.3,0.8,2.6,0.9,4.1C280,1384.8,280,1385.1,280,1385.5z"/>
		<path class="st2" d="M240,1405.5v2.5h-24v-2.5c0-0.3,0-0.5,0-0.8c0.1-1.4,0.3-2.7,0.7-3.9c0-0.1,0.1-0.2,0.1-0.3
			c1.3-3.6,3.9-6.4,7.1-7.6l0,0c1.2-0.5,2.6-0.8,4-0.8s2.8,0.3,4,0.8c1.5,0.6,2.8,1.5,4,2.6c0.5,0.4,0.9,0.9,1.3,1.4
			c1.6,2.1,2.5,4.7,2.7,7.6C240,1404.8,240,1405.1,240,1405.5z"/>
		<path class="st2" d="M292,1401.5v6.5h-24v-6.5c0-0.3,0-0.5,0-0.8c0.1-1.4,0.3-2.7,0.7-3.9c0-0.1,0.1-0.2,0.1-0.3
			c1.3-3.6,3.9-6.4,7.1-7.6c1.2-0.5,2.6-0.8,4-0.8s2.7,0.3,3.9,0.7c1.5,0.6,2.9,1.5,4.1,2.7c0.5,0.5,0.9,0.9,1.3,1.5
			c1.6,2.1,2.5,4.7,2.7,7.6C292,1400.8,292,1401.1,292,1401.5z"/>
	</g>
	<g>
		<path class="st1" d="M380,1364v12h-24v-12c0-2.3,0.6-4.4,1.8-6.3c2-3.2,5.3-5.4,9.3-5.7c0.3,0,0.7-0.1,1-0.1c1.4,0,2.8,0.2,4,0.7
			c1.5,0.5,2.8,1.3,4,2.4C378.5,1357.3,380,1360.4,380,1364z"/>
		<path class="st1" d="M352,1396v12h-24v-12c0-2.3,0.6-4.4,1.8-6.3c2-3.2,5.3-5.4,9.3-5.7c0.3,0,0.7-0.1,1-0.1c1.4,0,2.8,0.2,4,0.7
			c1.5,0.5,2.8,1.3,4,2.4C350.5,1389.3,352,1392.4,352,1396z"/>
		<path class="st1" d="M412,1372v12h-24v-12c0-2.3,0.6-4.4,1.8-6.3c2-3.2,5.3-5.4,9.3-5.7c0.3,0,0.7-0.1,1-0.1c1.4,0,2.8,0.2,4,0.7
			c1.5,0.5,2.8,1.3,4,2.4C410.5,1365.3,412,1368.4,412,1372z"/>
		<path class="st1" d="M428,1380v12h-24v-12c0-2.3,0.6-4.4,1.8-6.3c2-3.2,5.3-5.4,9.3-5.7c0.3,0,0.7-0.1,1-0.1c1.4,0,2.8,0.2,4,0.7
			c1.5,0.5,2.8,1.3,4,2.4C426.5,1373.3,428,1376.4,428,1380z"/>
		<path class="st1" d="M440,1396v12h-24v-12c0-2.3,0.6-4.4,1.8-6.3c1.9-3.2,5.3-5.4,9.2-5.7l0,0c0.3,0,0.7-0.1,1-0.1
			c1.4,0,2.8,0.2,4,0.7c1.5,0.5,2.8,1.3,4,2.4C438.5,1389.3,440,1392.4,440,1396z"/>
		<path class="st2" d="M368,1381.5v22.5h-24v-22.5c0-0.3,0-0.5,0-0.8c0.1-1.4,0.3-2.7,0.7-3.9c0-0.1,0.1-0.2,0.1-0.3
			c1.3-3.6,3.9-6.4,7.1-7.6c1.2-0.5,2.6-0.8,4-0.8c3.7,0,7,1.9,9.2,4.9c1.6,2.1,2.5,4.7,2.7,7.6C368,1380.8,368,1381.1,368,1381.5z"
			/>
		<path class="st2" d="M360,1397.5v10.5h-24v-10.5c0-1.7,0.3-3.3,0.8-4.7c1.7-5.1,6.1-8.8,11.2-8.8c3.7,0,7,1.9,9.2,4.9
			c0.7,0.9,1.3,2,1.7,3.1c0.6,1.4,0.9,2.9,1,4.5C360,1396.8,360,1397.1,360,1397.5z"/>
		<path class="st2" d="M388,1369.5v22.5h-24v-22.5c0-1.7,0.3-3.3,0.8-4.7c1.2-3.7,3.9-6.7,7.2-8c1.3-0.5,2.6-0.8,4-0.8
			c3.7,0,7,1.9,9.2,4.9c0.8,1.1,1.4,2.3,1.9,3.5c0.5,1.3,0.8,2.6,0.9,4.1C388,1368.8,388,1369.1,388,1369.5z"/>
		<path class="st2" d="M404,1381.5v22.5h-24v-22.5c0-1.7,0.3-3.3,0.8-4.7c1.2-3.7,3.9-6.7,7.2-8c1.3-0.5,2.6-0.8,4-0.8
			c3.7,0,7,1.9,9.2,4.9c0.8,1.1,1.4,2.3,1.9,3.5c0.5,1.3,0.8,2.6,0.9,4.1C404,1380.8,404,1381.1,404,1381.5z"/>
		<path class="st2" d="M424,1389.5v18.5h-24v-18.5c0-1.7,0.3-3.3,0.8-4.7c0.7-2,1.7-3.8,3.1-5.2c1.2-1.2,2.6-2.2,4.1-2.8
			c1.3-0.5,2.6-0.8,4-0.8c3.7,0,7,1.9,9.2,4.9c0.7,1,1.3,2,1.7,3.2c0.1,0.1,0.1,0.2,0.1,0.4c0.5,1.3,0.8,2.6,0.9,4.1
			C424,1388.8,424,1389.1,424,1389.5z"/>
		<rect x="344" y="1392" class="st2" width="68" height="16"/>
		<path class="st2" d="M436,1405.5v2.5h-24v-2.5c0-1.7,0.3-3.3,0.8-4.7c1.7-5.1,6.1-8.8,11.2-8.8c3.7,0,7,1.9,9.2,4.9
			c1.6,2.1,2.5,4.7,2.7,7.6C436,1404.8,436,1405.1,436,1405.5z"/>
	</g>
	<circle class="st19" cx="666" cy="1394" r="4"/>
</g>
<g id="titles">
	<text transform="matrix(1 0 0 1 512 1792)" class="st5 st32 st33">MINIMALIST FOREST</text>
	<text transform="matrix(1 0 0 1 1408 1792)" class="st5 st34 st35">TIo AIMAR</text>
	<rect id="_x3C_Slice_x3E_" x="64" y="64" class="st36" width="128" height="128"/>
	<rect id="_x3C_Slice_x3E__1_" x="200" y="64" class="st36" width="128" height="128"/>
	<rect id="_x3C_Slice_x3E__3_" x="336" y="64" class="st36" width="128" height="128"/>
	<rect id="_x3C_Slice_x3E__2_" x="472" y="64" class="st36" width="128" height="128"/>
	<rect id="_x3C_Slice_x3E__7_" x="608" y="64" class="st36" width="128" height="128"/>
	<rect id="_x3C_Slice_x3E__6_" x="744" y="64" class="st36" width="128" height="128"/>
	<rect id="_x3C_Slice_x3E__5_" x="880" y="64" class="st36" width="128" height="128"/>
	<rect id="_x3C_Slice_x3E__4_" x="1016" y="64" class="st36" width="128" height="128"/>
	<rect id="_x3C_Slice_x3E__11_" x="1152" y="64" class="st36" width="128" height="128"/>
	<rect id="_x3C_Slice_x3E__10_" x="1288" y="64" class="st36" width="128" height="128"/>
	<rect id="_x3C_Slice_x3E__9_" x="1424" y="64" class="st36" width="128" height="128"/>
	<rect id="_x3C_Slice_x3E__8_" x="1560" y="64" class="st36" width="128" height="128"/>
	<rect id="_x3C_Slice_x3E__23_" x="64" y="200" class="st36" width="128" height="128"/>
	<rect id="_x3C_Slice_x3E__22_" x="200" y="200" class="st36" width="128" height="128"/>
	<rect id="_x3C_Slice_x3E__21_" x="336" y="200" class="st36" width="128" height="128"/>
	<rect id="_x3C_Slice_x3E__20_" x="472" y="200" class="st36" width="128" height="128"/>
	<rect id="_x3C_Slice_x3E__19_" x="608" y="200" class="st36" width="128" height="128"/>
	<rect id="_x3C_Slice_x3E__18_" x="744" y="200" class="st36" width="128" height="128"/>
	<rect id="_x3C_Slice_x3E__17_" x="880" y="200" class="st36" width="128" height="128"/>
	<rect id="_x3C_Slice_x3E__16_" x="1016" y="200" class="st36" width="128" height="128"/>
	<rect id="_x3C_Slice_x3E__15_" x="1152" y="200" class="st36" width="128" height="128"/>
	<rect id="_x3C_Slice_x3E__14_" x="1288" y="200" class="st36" width="128" height="128"/>
	<rect id="_x3C_Slice_x3E__13_" x="1424" y="200" class="st36" width="128" height="128"/>
	<rect id="_x3C_Slice_x3E__12_" x="1560" y="200" class="st36" width="128" height="128"/>
	<rect id="_x3C_Slice_x3E__35_" x="64" y="336" class="st36" width="128" height="128"/>
	<rect id="_x3C_Slice_x3E__34_" x="200" y="336" class="st36" width="128" height="128"/>
	<rect id="_x3C_Slice_x3E__33_" x="336" y="336" class="st36" width="128" height="128"/>
	<rect id="_x3C_Slice_x3E__32_" x="472" y="336" class="st36" width="128" height="128"/>
	<rect id="_x3C_Slice_x3E__31_" x="608" y="336" class="st36" width="128" height="128"/>
	<rect id="_x3C_Slice_x3E__30_" x="744" y="336" class="st36" width="128" height="128"/>
	<rect id="_x3C_Slice_x3E__29_" x="880" y="336" class="st36" width="128" height="128"/>
	<rect id="_x3C_Slice_x3E__28_" x="1016" y="336" class="st36" width="128" height="128"/>
	<rect id="_x3C_Slice_x3E__27_" x="1152" y="336" class="st36" width="128" height="128"/>
	<rect id="_x3C_Slice_x3E__26_" x="1288" y="336" class="st36" width="128" height="128"/>
	<rect id="_x3C_Slice_x3E__25_" x="1424" y="336" class="st36" width="128" height="128"/>
	<rect id="_x3C_Slice_x3E__24_" x="1560" y="336" class="st36" width="128" height="128"/>
	<rect id="_x3C_Slice_x3E__47_" x="64" y="472" class="st36" width="128" height="128"/>
	<rect id="_x3C_Slice_x3E__46_" x="200" y="472" class="st36" width="128" height="128"/>
	<rect id="_x3C_Slice_x3E__45_" x="336" y="472" class="st36" width="128" height="128"/>
	<rect id="_x3C_Slice_x3E__44_" x="472" y="472" class="st36" width="128" height="128"/>
	<rect id="_x3C_Slice_x3E__43_" x="608" y="472" class="st36" width="128" height="128"/>
	<rect id="_x3C_Slice_x3E__42_" x="744" y="472" class="st36" width="128" height="128"/>
	<rect id="_x3C_Slice_x3E__41_" x="880" y="472" class="st36" width="128" height="128"/>
	<rect id="_x3C_Slice_x3E__40_" x="1016" y="472" class="st36" width="128" height="128"/>
	<rect id="_x3C_Slice_x3E__39_" x="1152" y="472" class="st36" width="128" height="128"/>
	<rect id="_x3C_Slice_x3E__38_" x="1288" y="472" class="st36" width="128" height="128"/>
	<rect id="_x3C_Slice_x3E__37_" x="1424" y="472" class="st36" width="128" height="128"/>
	<rect id="_x3C_Slice_x3E__36_" x="1560" y="472" class="st36" width="128" height="128"/>
	<rect id="_x3C_Slice_x3E__71_" x="64" y="608" class="st36" width="128" height="128"/>
	<rect id="_x3C_Slice_x3E__70_" x="200" y="608" class="st36" width="128" height="128"/>
	<rect id="_x3C_Slice_x3E__69_" x="336" y="608" class="st36" width="128" height="128"/>
	<rect id="_x3C_Slice_x3E__68_" x="472" y="608" class="st36" width="128" height="128"/>
	<rect id="_x3C_Slice_x3E__67_" x="608" y="608" class="st36" width="128" height="128"/>
	<rect id="_x3C_Slice_x3E__66_" x="744" y="608" class="st36" width="128" height="128"/>
	<rect id="_x3C_Slice_x3E__65_" x="880" y="608" class="st36" width="128" height="128"/>
	<rect id="_x3C_Slice_x3E__64_" x="1016" y="608" class="st36" width="128" height="128"/>
	<rect id="_x3C_Slice_x3E__63_" x="1152" y="608" class="st36" width="128" height="128"/>
	<rect id="_x3C_Slice_x3E__62_" x="1288" y="608" class="st36" width="128" height="128"/>
	<rect id="_x3C_Slice_x3E__61_" x="1424" y="608" class="st36" width="128" height="128"/>
	<rect id="_x3C_Slice_x3E__60_" x="1560" y="608" class="st36" width="128" height="128"/>
	<rect id="_x3C_Slice_x3E__59_" x="64" y="744" class="st36" width="128" height="128"/>
	<rect id="_x3C_Slice_x3E__58_" x="200" y="744" class="st36" width="128" height="128"/>
	<rect id="_x3C_Slice_x3E__57_" x="336" y="744" class="st36" width="128" height="128"/>
	<rect id="_x3C_Slice_x3E__56_" x="472" y="744" class="st36" width="128" height="128"/>
	<rect id="_x3C_Slice_x3E__55_" x="608" y="744" class="st36" width="128" height="128"/>
	<rect id="_x3C_Slice_x3E__54_" x="744" y="744" class="st36" width="128" height="128"/>
	<rect id="_x3C_Slice_x3E__53_" x="880" y="744" class="st36" width="128" height="128"/>
	<rect id="_x3C_Slice_x3E__52_" x="1016" y="744" class="st36" width="128" height="128"/>
	<rect id="_x3C_Slice_x3E__51_" x="1152" y="744" class="st36" width="128" height="128"/>
	<rect id="_x3C_Slice_x3E__50_" x="1288" y="744" class="st36" width="128" height="128"/>
	<rect id="_x3C_Slice_x3E__49_" x="1424" y="744" class="st36" width="128" height="128"/>
	<rect id="_x3C_Slice_x3E__48_" x="1560" y="744" class="st36" width="128" height="128"/>
	<rect id="_x3C_Slice_x3E__72_" x="1344" y="1088" class="st36" width="128" height="128"/>
	<rect id="_x3C_Slice_x3E__73_" x="64" y="1280" class="st36" width="128" height="128"/>
	<rect id="_x3C_Slice_x3E__74_" x="192" y="1280" class="st36" width="128" height="128"/>
	<rect id="_x3C_Slice_x3E__75_" x="320" y="1280" class="st36" width="128" height="128"/>
	<rect id="_x3C_Slice_x3E__78_" x="448" y="1280" class="st36" width="128" height="128"/>
	<rect id="_x3C_Slice_x3E__77_" x="576" y="1280" class="st36" width="128" height="128"/>
	<rect id="_x3C_Slice_x3E__76_" x="704" y="1280" class="st36" width="128" height="128"/>
	<rect id="_x3C_Slice_x3E__81_" x="832" y="1280" class="st36" width="128" height="128"/>
	<rect id="_x3C_Slice_x3E__80_" x="960" y="1280" class="st36" width="128" height="128"/>
	<rect id="_x3C_Slice_x3E__79_" x="1088" y="1280" class="st36" width="128" height="128"/>
	<rect id="_x3C_Slice_x3E__84_" x="1216" y="1280" class="st36" width="128" height="128"/>
	<rect id="_x3C_Slice_x3E__83_" x="1344" y="1280" class="st36" width="128" height="128"/>
	<rect id="_x3C_Slice_x3E__82_" x="1472" y="1280" class="st36" width="128" height="128"/>
	<rect id="_x3C_Slice_x3E__96_" x="64" y="1472" class="st36" width="128" height="128"/>
	<rect id="_x3C_Slice_x3E__95_" x="192" y="1472" class="st36" width="128" height="128"/>
	<rect id="_x3C_Slice_x3E__94_" x="320" y="1472" class="st36" width="128" height="128"/>
	<rect id="_x3C_Slice_x3E__93_" x="448" y="1472" class="st36" width="128" height="128"/>
	<rect id="_x3C_Slice_x3E__92_" x="576" y="1472" class="st36" width="128" height="128"/>
	<rect id="_x3C_Slice_x3E__91_" x="704" y="1472" class="st36" width="128" height="128"/>
	<rect id="_x3C_Slice_x3E__90_" x="832" y="1472" class="st36" width="128" height="128"/>
	<rect id="_x3C_Slice_x3E__89_" x="960" y="1472" class="st36" width="128" height="128"/>
	<rect id="_x3C_Slice_x3E__88_" x="1088" y="1472" class="st36" width="128" height="128"/>
	<rect id="_x3C_Slice_x3E__87_" x="1216" y="1472" class="st36" width="128" height="128"/>
	<rect id="_x3C_Slice_x3E__86_" x="1344" y="1472" class="st36" width="128" height="128"/>
	<rect id="_x3C_Slice_x3E__85_" x="1472" y="1472" class="st36" width="128" height="128"/>
	<rect id="_x3C_Slice_x3E__99_" x="64" y="1664" class="st36" width="128" height="128"/>
	<rect id="_x3C_Slice_x3E__98_" x="192" y="1664" class="st36" width="128" height="128"/>
	<rect id="_x3C_Slice_x3E__97_" x="320" y="1664" class="st36" width="128" height="128"/>
	<rect id="_x3C_Slice_x3E__100_" x="64" y="960" class="st36" width="128" height="256"/>
	<rect id="_x3C_Slice_x3E__101_" x="192" y="960" class="st36" width="128" height="256"/>
	<rect id="_x3C_Slice_x3E__103_" x="320" y="960" class="st36" width="128" height="256"/>
	<rect id="_x3C_Slice_x3E__102_" x="448" y="960" class="st36" width="128" height="256"/>
	<rect id="_x3C_Slice_x3E__107_" x="576" y="960" class="st36" width="128" height="256"/>
	<rect id="_x3C_Slice_x3E__106_" x="704" y="960" class="st36" width="128" height="256"/>
	<rect id="_x3C_Slice_x3E__105_" x="832" y="960" class="st36" width="128" height="256"/>
	<rect id="_x3C_Slice_x3E__104_" x="960" y="960" class="st36" width="128" height="256"/>
	<rect id="_x3C_Slice_x3E__109_" x="1088" y="960" class="st36" width="128" height="256"/>
	<rect id="_x3C_Slice_x3E__108_" x="1216" y="960" class="st36" width="128" height="256"/>
</g>
</svg>
